<?xml version="1.0" encoding="UTF-8"?>
<svg id="Layer_1" data-name="Layer 1" xmlns="http://www.w3.org/2000/svg" xmlns:xlink="http://www.w3.org/1999/xlink" viewBox="0 0 3351.03 2282.8">
  <defs>
    <style>
      .cls-1 {
        stroke: #7e8987;
        stroke-width: .65px;
      }

      .cls-1, .cls-2 {
        fill: #4b4a67;
      }
    </style>
    <symbol id="Children" viewBox="0 0 546.26 387.26">
      <g>
        <g>
          <g>
            <polygon class="cls-1" points="178.59 56.78 140.77 137.92 160.28 137.55 197.99 59.29 178.59 56.78"/>
            <polygon class="cls-1" points="257.01 56.78 294.52 137.85 275.03 137.73 237.61 59.29 257.01 56.78"/>
            <polygon class="cls-1" points="190.75 179.88 190.75 58.72 244.77 58.72 244.77 183.84 244.75 183.84 244.75 289.17 225.59 289.17 225.59 183.04 209.8 183.04 209.8 289.17 190.65 289.17 190.65 179.88 190.75 179.88"/>
            <path class="cls-1" d="M195.16,29.52c0,16.11,10.45,29.18,23.33,29.18s23.33-13.08,23.33-29.18S231.38.32,218.5.32s-23.33,13.07-23.33,29.19Z"/>
          </g>
          <g>
            <polygon class="cls-1" points="41.91 56.78 4.08 137.92 23.59 137.55 61.3 59.29 41.91 56.78"/>
            <polygon class="cls-1" points="120.32 56.78 158.06 137.69 138.45 137.97 100.93 59.29 120.32 56.78"/>
            <polygon class="cls-1" points="54.06 179.88 54.06 58.72 108.07 58.72 108.07 183.84 108.06 183.84 108.06 289.17 88.9 289.17 88.9 183.04 73.11 183.04 73.11 289.17 53.96 289.17 53.96 179.88 54.06 179.88"/>
            <path class="cls-1" d="M58.48,29.52c0,16.11,10.44,29.18,23.33,29.18s23.34-13.08,23.34-29.18S94.69.32,81.81.32s-23.33,13.07-23.33,29.19Z"/>
          </g>
          <g>
            <polygon class="cls-1" points="312 56.78 277.13 137.5 296.69 137.55 331.39 59.29 312 56.78"/>
            <polygon class="cls-1" points="390.41 56.78 428.24 137.92 408.73 137.55 371.01 59.29 390.41 56.78"/>
            <polygon class="cls-1" points="324.15 179.88 324.15 58.72 378.17 58.72 378.17 183.84 378.15 183.84 378.15 289.17 358.99 289.17 358.99 183.04 343.2 183.04 343.2 289.17 324.05 289.17 324.05 179.88 324.15 179.88"/>
            <path class="cls-1" d="M328.56,29.52c0,16.11,10.45,29.18,23.33,29.18s23.34-13.08,23.34-29.18S364.78.32,351.89.32s-23.33,13.07-23.33,29.19Z"/>
          </g>
        </g>
        <g>
          <path class="cls-2" d="M21.44,383.16c-.29,0-.55.08-.76.23-.22.16-.5.23-.84.23-.29,0-.51-.25-.65-.76-.15-.51-.25-1.11-.33-1.82-.07-.7-.12-1.44-.15-2.22-.02-.78-.04-1.48-.04-2.11,0-1.48.02-2.73.07-3.75.05-1.01.12-2.34.22-3.98.39-.62.58-1.05.58-1.29-.05-.16-.18-.41-.4-.76s-.38-.57-.47-.64c0-.08-.03-.16-.07-.23.1,0,.3-.02.62-.06.31-.04.52-.21.62-.53-.53-.62-.86-1.46-.98-2.52-.12-1.05-.18-2.05-.18-2.99,0-1.79.08-3.38.25-4.74.17-1.37.59-2.79,1.27-4.27-.05-.08-.1-.21-.15-.41-.05-.19-.12-.29-.22-.29v.12h-.07s-.07-.02-.07-.06-.02-.06-.07-.06c-.19,0-.41.2-.65.59-.1-.39-.22-1.19-.36-2.4-.15-1.21-.22-2.28-.22-3.22,0-.86.11-1.46.33-1.82.22-.35.46-.58.73-.7.27-.12.51-.21.73-.29.22-.08.33-.27.33-.59s-.16-.49-.47-.53c-.32-.04-.47-.33-.47-.88,0-.31.02-.51.07-.59.05-.08.11-.16.18-.23.07-.08.15-.18.22-.29s.11-.37.11-.76c0-1.25.05-1.95.15-2.11.1-.16.15-.43.15-.82-.53-.62-.94-1.21-1.24-1.76-.29-.55-.5-1.13-.62-1.76-.12-.62-.19-1.31-.22-2.05-.02-.74-.04-1.62-.04-2.64,0-.62.02-1.17.07-1.64.05-.47.07-1.01.07-1.64,0-.7-.11-1.23-.33-1.58-.22-.35-.47-.59-.76-.7-.29-.12-.57-.18-.84-.18s-.42.04-.47.12c-.19.08-.64.18-1.34.29-.7.12-1.47.25-2.29.41-.82.16-1.59.29-2.29.41-.7.12-1.15.18-1.34.18-.24,0-.61-.29-1.09-.88-.48-.59-.78-1.03-.87-1.35l-.15,2.46c-.48.16-1.09.25-1.82.29-.73.04-2.06.06-4,.06l1.16-.82c-.49,0-.95-.16-1.38-.47-.44-.31-.65-.9-.65-1.76,0-.39.12-.59.36-.59.1,0,.19.02.29.06.1.04.19.06.29.06.24,0,.45-.14.62-.41.17-.27.25-.92.25-1.93,0-.7-.04-1.29-.11-1.76-.07-.47-.16-1.13-.25-1.99l-.58.47v-1.76c0-.08-.15-.27-.44-.59-.15-.16-.29-.27-.44-.35l.58-.47c0-.08.01-.19.04-.35.02-.16.04-.31.04-.47,0-.62-.06-1.17-.18-1.64-.12-.47-.18-.9-.18-1.29,0-.16.07-.41.22-.76.15-.35.27-.53.36-.53l2.62-.35c0,.78.12,1.27.36,1.46.24.2.56.29.94.29,0-.31-.01-.55-.04-.7-.02-.16-.04-.31-.04-.47,0-.39.27-.74.8-1.05.1.16.19.41.29.76.1.35.24.53.44.53.24,0,.4-.16.47-.47.07-.31.11-.59.11-.82h1.38l-.15.94c-.1.23-.18.49-.25.76-.07.27-.16.49-.25.64.48,0,.82-.14,1.02-.41.19-.27.44-.64.73-1.11.24.08.36.51.36,1.29,0,.31-.06.59-.18.82-.12.23-.18.55-.18.94,0,.16.05.45.15.88.1.43.15.68.15.76.29,0,.47-.1.54-.29.07-.19.11-.49.11-.88,0-.23-.01-.47-.04-.7-.02-.23-.13-.39-.33-.47.39,0,.63-.1.73-.29.1-.19.15-.41.15-.64,0-.08-.01-.16-.04-.23-.02-.08-.04-.16-.04-.23,0-.47.17-.7.51-.7.1,0,.25.23.47.7.22.47.42.78.62.94.1,0,.23-.06.4-.18.17-.12.28-.18.33-.18.1,0,.16.18.18.53.02.35.04.74.04,1.17s.02.82.07,1.17c.05.35.12.53.22.53.53-.78,1.02-1.52,1.45-2.23.39-.55.74-1.05,1.05-1.52.31-.47.52-.7.62-.7.29,0,.47.22.54.64.07.43.1.94.07,1.52-.02.59-.07,1.13-.15,1.64-.07.51-.11.8-.11.88.39-.55.71-1.01.98-1.41.27-.39.59-.86.98-1.41.34-.31.57-.72.69-1.23.12-.51.18-1,.18-1.46.19.16.33.41.4.76s.13.74.18,1.17c.05.43.11.8.18,1.11.07.31.21.47.4.47.1,0,.29-.04.58-.12.29-.08.48-.16.58-.23-.05-.16-.1-.33-.15-.53-.05-.19-.1-.33-.15-.41l-.07.12c0-.08.08-.41.25-1,.17-.59.35-1.07.54-1.46,0,.08.07.14.22.18.15.04.22.14.22.29,0,.55-.03.98-.07,1.29-.05.31-.07.74-.07,1.29.29,0,.5-.19.62-.59.12-.39.35-.59.69-.59l.15.12h.15c-.19.63-.29,1.05-.29,1.29,0,.16.01.31.04.47.02.16.04.43.04.82.39,0,.71-.19.98-.59.27-.39.47-.84.62-1.35.15-.51.25-1.05.33-1.64.07-.59.11-1.11.11-1.58,0-1.56-.1-2.64-.29-3.22-.19-.59-.82-.88-1.89-.88,0-.31.04-.49.11-.53.07-.04.22-.08.44-.12.22-.04.5-.12.84-.23.34-.12.77-.37,1.31-.76-.05,0,.04,0,.25,0s.33.12.33.35l-.29.59v5.04c0,.31.1.47.29.47.63,0,.99-.35,1.09-1.05.1-.7.15-1.37.15-1.99,0-.78-.12-1.27-.36-1.46-.24-.19-.36-.6-.36-1.23.48,0,.99.25,1.53.76.53.51.92.92,1.16,1.23,0,.16-.01.31-.04.47-.02.16-.04.35-.04.59,0,.55.02,1.15.07,1.82.05.66.11,1.31.18,1.93.07.63.18,1.15.33,1.58.15.43.31.64.51.64.24,0,.52-.1.84-.29.31-.19.47-.57.47-1.11v-3.87c-.1,0-.19.02-.29.06-.1.04-.19.06-.29.06-.39,0-.58-.23-.58-.7.53-.47.9-.92,1.09-1.35.19-.43.31-.84.36-1.23.05-.39.08-.7.11-.94.02-.23.13-.35.33-.35.29,0,.57.08.84.23.27.16.4.55.4,1.17h-.8l.29,1.87c0-.08.13-.33.4-.76.27-.43.56-.88.87-1.35.31-.47.62-.88.91-1.23.29-.35.46-.53.51-.53v3.51c.29,0,.71-.33,1.27-1,.56-.66,1.05-1,1.49-1,.24,0,.52.16.84.47.31.31.47.66.47,1.05,0,.55-.23,1.04-.69,1.46-.46.43-.81.64-1.05.64-.1,0-.21-.06-.33-.18-.12-.12-.21-.21-.25-.29,0,.08-.01.2-.04.35-.02.16-.04.35-.04.59,0,.63.12.94.36.94.1,0,.21-.06.33-.18.12-.12.21-.21.25-.29-.1.47-.15.82-.15,1.05,0,.78.29,1.17.87,1.17.53,0,.8-.31.8-.94,0-.39-.11-.57-.33-.53-.22.04-.33-.14-.33-.53,0-.23.11-.47.33-.7.22-.23.46-.47.73-.7.27-.23.51-.49.73-.76.22-.27.33-.57.33-.88,0-.23-.06-.45-.18-.64-.12-.19-.18-.41-.18-.64s.15-.41.44-.53c.29-.12.53-.18.73-.18,0,1.02-.12,1.97-.36,2.87-.24.9-.7,1.54-1.38,1.93.24.16.47.41.69.76.22.35.42.53.62.53.1,0,.24-.16.44-.47.19-.31.34-.47.44-.47.39,0,.65.41.8,1.23.15.82.22,1.58.22,2.28,0,.47.12.8.36,1,.24.2.52.37.84.53.31.16.59.41.84.76.24.35.36.88.36,1.58,0,.78-.04,1.27-.11,1.46-.07.2-.45.29-1.13.29-.34,0-.57-.08-.69-.23-.12-.16-.28-.23-.47-.23-.44.16-.85.45-1.24.88-.39.43-.85.64-1.38.64v-1.05s-.28.06-.69.18c-.41.12-.87.25-1.38.41-.51.16-.99.31-1.45.47-.46.16-.74.27-.84.35-.05,0-.15.08-.29.23-.15.16-.24.23-.29.23-.34,0-.63-.18-.87-.53-.24-.35-.53-.53-.87-.53-.39,0-.63.33-.73,1-.1.66-.32,1-.65,1-.15,0-.25-.19-.33-.59-.07-.39-.21-.66-.4-.82-.44.47-.73,1.17-.87,2.11h-2.62c-.1-.16-.23-.33-.4-.53-.17-.19-.28-.29-.33-.29-.29,0-.63.47-1.02,1.41-.39.94-.58,1.64-.58,2.11,0,.7.06,1.37.18,1.99.12.63.18,1.37.18,2.23,0,1.02-.07,1.87-.22,2.58-.15.7-.22,1.52-.22,2.46,0,.47.02.82.07,1.05-.1.08-.25.22-.47.41-.22.2-.45.41-.69.64-.24.23-.53.55-.87.94,0,.16.05.37.15.64.1.27.15.45.15.53v.12c.1-.08.21-.16.33-.23.12-.08.21-.19.25-.35v.47c0,.08.02.12.07.12,0,.39-.1.78-.29,1.17-.19.39-.41.74-.65,1.05.15.08.29.2.44.35.29.31.44.51.44.59-.05.39-.12.74-.22,1.05-.1.31-.17.66-.22,1.05-.05.39-.1.74-.15,1.05.05.08.11.2.18.35.07.16.16.23.25.23.19,0,.34-.16.44-.47.1-.31.17-.64.22-1,.05-.35.07-.84.07-1.46.19.08.3.29.33.64.02.35.05.74.07,1.17.02.43.06.88.11,1.35.05.47.17.82.36,1.05l-.29,4.1c-.05.08-.1.12-.15.12-.19,0-.41-.25-.65-.76-.24-.51-.46-.76-.65-.76-.05,0-.07.02-.07.06,0,.04-.02.06-.07.06h-.07c0,1.09.17,2.21.51,3.34.34,1.13.92,1.86,1.74,2.17.1,0,.23-.1.4-.29.17-.19.33-.29.47-.29-.15.23-.34.63-.58,1.17-.24.55-.5,1.11-.76,1.7-.27.59-.52,1.09-.76,1.52-.24.43-.41.64-.51.64v3.28c-.1,0-.22.1-.36.29-.15.2-.22.37-.22.53,0,.62.19,1.31.58,2.05.39.74.77,1.11,1.16,1.11.1,0,.23-.08.4-.23.17-.16.33-.23.47-.23l-2.04,3.4c-.1-.08-.22-.12-.36-.12-.24,0-.41.14-.51.41-.1.27-.17.63-.22,1.05-.05.43-.1.84-.15,1.23-.05.39-.12.7-.22.94,0,.31.02.82.07,1.52.05.7.08,1.45.11,2.22.02.78.05,1.5.07,2.17.02.66.04,1.15.04,1.46,0,.39.04.64.11.76s.15.22.22.29c.07.08.15.17.22.29s.11.37.11.76c0,.23-.1.63-.29,1.17-.19.55-.42,1.11-.69,1.7-.27.59-.53,1.15-.8,1.7-.27.55-.47.9-.62,1.05.24,0,.46.23.65.7,0,.16-.06.31-.18.47-.12.16-.23.27-.33.35-.24,0-.44-.14-.58-.41-.15-.27-.3-.55-.47-.82-.17-.27-.35-.55-.55-.82-.19-.27-.44-.41-.73-.41ZM1.09,307.27c0,.63.17.94.51.94s.51-.31.51-.94h-1.02ZM1.82,312.65l2.25.35-.29-4.33-1.96,3.98ZM2.62,317.34l.29-.59-.73-2.11.44,2.69ZM3.78,319.45c-.24,0-.47.33-.69,1-.22.66-.38,1.11-.47,1.35.68.39,1.17.39,1.49,0,.31-.39.21-1.17-.33-2.34ZM3.49,313.59c-.15,0-.22.16-.22.47,0,.16.08.59.25,1.29.17.7.3,1.05.4,1.05s.22-.29.36-.88c.15-.59.22-.96.22-1.11s-.15-.33-.44-.53c-.29-.19-.48-.29-.58-.29ZM5.38,310.54s.17-.06.36-.18c.19-.12.4-.27.62-.47.22-.19.42-.37.62-.53.19-.16.31-.27.36-.35,0-.08-.09-.18-.25-.29-.17-.12-.36-.21-.58-.29-.22-.08-.5-.19-.84-.35l-.15.12-.15,2.34ZM5.81,311.83c-.15,0-.22.16-.22.47s.07.47.22.47.22-.16.22-.47-.07-.47-.22-.47ZM6.1,312.42c-.15,0-.22.16-.22.47,0,.08.06.37.18.88.12.51.23.76.33.76s.11-.25.04-.76c-.07-.51-.11-.8-.11-.88,0-.31-.07-.47-.22-.47ZM7.27,320.15h.29v-.47h-.29v.47ZM7.85,313.59c.19,0,.3.1.33.29.02.2.04.33.04.41,0-.16-.01-.43-.04-.82-.02-.39-.13-.62-.33-.7l-.29.47.29.35ZM8.14,317.81l.29-.47h-.29v.47ZM10.68,313c-.1,0-.29.35-.58,1.05s-.44,1.13-.44,1.29c.63,0,1-.1,1.13-.29.12-.19.18-.64.18-1.35,0-.08-.02-.21-.07-.41-.05-.19-.12-.29-.22-.29ZM11.34,310.54c-.15,0-.22.16-.22.47,0,.23.07.35.22.35s.22-.12.22-.35c0-.31-.07-.47-.22-.47ZM11.63,314.29c-.05.23-.01.41.11.53.12.12.21.22.25.29,0-.08.02-.16.07-.23,0-.08-.04-.23-.11-.47-.07-.23-.18-.35-.33-.35v.23ZM14.61,313.24c-.15,0-.22.16-.22.47s.07.47.22.47.22-.16.22-.47-.07-.47-.22-.47ZM15.19,308.67h.29l-.29.47v-.47ZM20.93,357.63c-.44,0-.84.17-1.2.53s-.55.96-.55,1.82c.44,0,.84-.19,1.2-.58.36-.39.54-.98.54-1.76ZM19.55,322.84c0-.08-.05-.12-.15-.12s-.15.04-.15.12c0,.16.05.23.15.23s.15-.08.15-.23ZM19.55,361.73c-.1,0-.15.04-.15.12,0,.16.05.23.15.23.05,0,.07-.04.07-.12,0-.16-.03-.23-.07-.23ZM19.84,355.28c-.15,0-.22.16-.22.47s.07.47.22.47.22-.16.22-.47-.07-.47-.22-.47ZM20.71,333.73c-.1,0-.15.08-.15.23,0,.23.05.35.15.35.05,0,.07-.12.07-.35,0-.16-.02-.23-.07-.23ZM21,336.54c-.15,0-.22.16-.22.47s.07.47.22.47.22-.16.22-.47-.07-.47-.22-.47ZM21,311.36h.29v-.35h-.29v.35ZM21.3,351.89c.19,0,.34-.14.44-.41.1-.27.15-.49.15-.64h-.58v1.05ZM25.66,311.36c-.1,0-.29.35-.58,1.05-.29.7-.44,1.13-.44,1.29.63,0,1.01-.1,1.13-.29.12-.19.18-.64.18-1.35,0-.08-.03-.21-.07-.41-.05-.19-.12-.29-.22-.29ZM25.37,314.53c-.15,0-.22.16-.22.47s.07.47.22.47.22-.16.22-.47-.07-.47-.22-.47ZM25.37,357.51h.29v-.35h-.29v.35ZM25.66,352.47c-.1,0-.15.08-.15.23s.05.23.15.23c.05,0,.07-.08.07-.23s-.02-.23-.07-.23ZM26.53,351.65c-.15,0-.22.16-.22.47,0,.23.07.35.22.35s.22-.12.22-.35c0-.31-.07-.47-.22-.47ZM26.82,323.31h.36c0-.39-.12-.7-.36-.94v.94ZM27.11,320.15h.29l-.29-.47v.47ZM27.69,312.77c-.15,0-.25.31-.33.94-.07.63-.11,1.13-.11,1.52.73,0,1.09-.55,1.09-1.64,0-.31-.04-.53-.11-.64-.07-.12-.25-.18-.54-.18ZM27.62,306.56c0,.86.22,1.29.65,1.29.29,0,.48-.19.58-.59-.1-.39-.3-.6-.62-.64-.32-.04-.52-.06-.62-.06ZM29.44,314.06c-.15,0-.22.2-.22.59,0,.31.07.47.22.47s.22-.18.22-.53-.07-.53-.22-.53ZM29.44,309.49c0,.08.04.2.11.35.07.16.13.23.18.23.24-.31.41-.53.51-.64.1-.12.15-.37.15-.76,0-.47-.12-.94-.36-1.41-.1.31-.22.72-.36,1.23-.15.51-.22.84-.22,1ZM30.38,313c-.29-.16-.5-.14-.62.06-.12.2-.21.41-.25.64-.05.23-.07.43-.07.59s0,.04,0-.35c0-.55.1-.82.29-.82.1,0,.19.04.29.12.1.08.17.12.22.12.1,0,.15-.12.15-.35ZM30.31,310.54c-.19.16-.3.35-.33.59-.02.23-.04.47-.04.7h.73c0-.47-.12-.9-.36-1.29ZM36.2,308.2c0,.63.02,1.39.07,2.28.05.9.12,1.66.22,2.28.34-.08.63-.37.87-.88.24-.51.36-.96.36-1.35h-1.09v-2.34h-.44ZM36.49,313.59c-.1,0-.15.08-.15.23s.05.23.15.23c.05,0,.07-.08.07-.23s-.02-.23-.07-.23ZM37.07,305.04c0-.16-.05-.23-.15-.23s-.15.08-.15.23.05.23.15.23.15-.08.15-.23ZM37.65,308.67c-.15,0-.22.16-.22.47,0,.23.07.35.22.35s.22-.12.22-.35c0-.31-.07-.47-.22-.47ZM38.23,306.8c0-.08-.05-.12-.15-.12s-.15.04-.15.12c0,.16.05.23.15.23s.15-.08.15-.23ZM39.97,301.41c-.15,0-.22.16-.22.47,0,.23.07.35.22.35s.22-.12.22-.35c0-.31-.07-.47-.22-.47ZM41.43,308.2c-.19.16-.29.35-.29.59v.7h.58l-.29-1.29ZM43.46,308.2c0,.31.05.63.15.94.1.31.19.47.29.47s.19-.12.29-.35c.1-.23.15-.43.15-.59,0-.31-.07-.49-.22-.53-.15-.04-.27-.06-.36-.06-.05,0-.1.02-.15.06-.05.04-.1.06-.15.06ZM45.21,311.01c-.39,0-.63.31-.73.94-.1.63-.15,1.21-.15,1.76h.58s.11-.41.18-1.23.11-1.31.11-1.46ZM45.5,311.36c-.15,0-.22.2-.22.59,0,.31.07.47.22.47s.22-.16.22-.47c0-.39-.07-.59-.22-.59Z"/>
          <path class="cls-2" d="M73.92,356.1l-1.45-1.99-.29-1.87c-.34-1.79-.7-2.69-1.09-2.69-.53,0-.87.22-1.02.64-.15.43-.23.96-.25,1.58-.02.63-.04,1.25-.04,1.87s-.1,1.09-.29,1.41c-.05.16-.21.41-.47.76-.27.35-.56.72-.87,1.11-.32.39-.62.72-.91,1-.29.27-.49.45-.58.53l-.15-4.45c-.19.39-.39.74-.58,1.05-.1.16-.17.29-.22.41-.05.12-.12.22-.22.29-.1.16-.17.23-.22.23s-.05.12,0,.35c.05.23.1.47.15.7.05.31.12.63.22.94-.05.08-.11.29-.18.64s-.11.61-.11.76h1.02c-.05.62-.19,1.29-.44,1.99-.24.7-.65,1.05-1.24,1.05-.19,0-.29-.19-.29-.59s-.17-.59-.51-.59c-.05,0-.1.02-.15.06-.05.04-.1.06-.15.06.19.31.28.57.25.76-.02.2-.09.37-.18.53-.1.16-.21.33-.33.53-.12.2-.18.45-.18.76,0,1.48-.06,2.99-.18,4.51-.12,1.52-.32,2.97-.58,4.33-.27,1.37-.64,2.6-1.13,3.69-.48,1.09-1.09,1.95-1.82,2.58-.24.31-.36.68-.36,1.11s-.17.64-.51.64c-.44,0-.7-.2-.8-.59.19-1.01.4-1.72.62-2.11.22-.39.33-1.01.33-1.87.1.16.22.27.36.35.05.08.15.12.29.12.05,0,.07.04.07.12-.58,0-1.08.31-1.49.94-.41.63-.81,1.05-1.2,1.29h-.29c-.1,0-.29-.1-.58-.29-.29-.19-.48-.33-.58-.41h-.36c-.1-.54-.19-1-.29-1.35-.1-.35-.19-.64-.29-.88-.1-.23-.19-.27-.29-.12-.05,0-.1.08-.15.23-.05.16-.1.27-.15.35.1,0,.23.16.4.47.17.31.28.55.33.7v.35l-.44,1.87c0-.08-.04-.19-.11-.35-.07-.16-.13-.27-.18-.35h-.07s-.08-.02-.11-.06c-.02-.04-.06-.06-.11-.06l-.07.12c-.1.08-.33.47-.69,1.17-.36.7-.59,1.05-.69,1.05-.05.08-.12.12-.22.12-.05,0-.12.04-.22.12,0-.86.07-1.58.22-2.17.15-.58.22-1.27.22-2.05,0-1.17-.07-2.34-.22-3.51-.15-1.17-.22-2.3-.22-3.4,0-.62.13-1.17.4-1.64.27-.47.4-1.09.4-1.87,0-.39-.13-.68-.4-.88-.27-.19-.4-.6-.4-1.23,0-1.48.18-3.08.55-4.8.36-1.72.54-3.2.54-4.45,0-.23-.08-.57-.25-1-.17-.43-.3-.68-.4-.76,0-.23-.03-.68-.07-1.35-.05-.66-.1-1.35-.15-2.05-.05-.7-.1-1.37-.15-1.99-.05-.62-.07-1.05-.07-1.29v-29.4c-.39-2.81-.78-5.66-1.16-8.55-.39-2.89-.58-5.74-.58-8.55,0-.86.21-1.39.62-1.58.41-.19.84-.41,1.27-.64v1.87c.53-.31.87-.68,1.02-1.11.15-.43.23-.84.25-1.23.02-.39.04-.74.04-1.05s.12-.51.36-.59l.65,1.17c.24-.16.73-.23,1.45-.23s1.21.08,1.45.23c.58.16.87.53.87,1.11v1.93c.1,0,.34-.12.73-.35.39-.23.61-.04.65.59.05.23.04.61-.04,1.11-.07.51-.17,1.05-.29,1.64-.12.59-.23,1.11-.33,1.58-.1.47-.15.82-.15,1.05-.39.86-.69,1.52-.91,1.99-.22.47-.42.9-.62,1.29-.19.39-.29.63-.29.7,0,.16.17.2.51.12.34-.08.7-.16,1.09-.23.39-.08.74-.14,1.05-.18.31-.04.47.1.47.41-.05.39-.16.94-.33,1.64-.17.7-.35,1.45-.54,2.23-.19.78-.38,1.54-.55,2.28-.17.74-.28,1.35-.33,1.82-.05.39-.02.64.07.76.1.12.21.22.33.29.12.08.24.18.36.29.12.12.18.33.18.64s-.23.63-.69.94c-.46.31-.69.63-.69.94.24.23.52.57.84,1,.31.43.64.96.98,1.58.39.63.71,1.27.98,1.93.27.66.4,1.31.4,1.93v.35c0,.08-.13.25-.4.53-.27.27-.56.59-.87.94-.32.35-.74.8-1.27,1.35,0,.08.08.29.25.64.17.35.34.72.51,1.11.17.39.34.76.51,1.11.17.35.25.57.25.64-.19.7-.5,1.23-.91,1.58-.41.35-.62,1.07-.62,2.17,0,.08.1.33.29.76.19.43.4.88.62,1.35.22.47.42.9.62,1.29.19.39.29.63.29.7s-.01.12-.04.12-.04.04-.04.12v.23c0,.55-.1,1.39-.29,2.52-.19,1.13-.34,1.86-.44,2.17-.05.55-.16.74-.33.59-.17-.16-.38-.23-.62-.23l.15,7.26c.24-.31.53-.94.87-1.87.34-.94.7-1.91,1.09-2.93.39-1.01.75-1.95,1.09-2.81.34-.86.63-1.37.87-1.52.77-.54,1.4-1.09,1.89-1.64.48-.54.91-1.15,1.27-1.82.36-.66.7-1.41,1.02-2.22.31-.82.71-1.82,1.2-2.99.24-.54.39-1.13.44-1.76.05-.62.27-1.13.65-1.52.29.16.47.61.55,1.35.07.74.11,1.19.11,1.35l2.47-3.87c.19-.31.35-.7.47-1.17.12-.47.27-.9.44-1.29.17-.39.35-.74.55-1.05.19-.31.46-.47.8-.47.68,0,1.33.33,1.96,1,.63.66,1.17,1.48,1.64,2.46.46.98.84,2.03,1.13,3.16.29,1.13.44,2.17.44,3.1-.58,0-.96-.1-1.13-.29-.17-.19-.5-.29-.98-.29,0,.94.02,1.46.07,1.58.05.12.13.1.25-.06.12-.16.29-.29.51-.41.22-.12.5.02.84.41.34.47.54.94.62,1.41s.12.9.15,1.29c.02.39.11.74.25,1.05.15.31.51.55,1.09.7.05.23,0,.55-.15.94-.15.39-.3.8-.47,1.23-.17.43-.32.84-.44,1.23-.12.39-.11.63.04.7l1.6,1.64-1.09,2.69c-.1.23-.07.43.07.59.15.16.31.29.51.41.19.12.39.25.58.41.19.16.31.35.36.59,0,.16-.11.27-.33.35-.22.08-.46.16-.73.23-.27.08-.5.16-.69.23-.19.08-.27.2-.22.35.05.31.3.7.76,1.17.46.47.93.94,1.42,1.41.48.47.93.94,1.34,1.41.41.47.62.86.62,1.17s-.16.43-.47.35c-.32-.08-.67-.19-1.05-.35-.39-.16-.76-.27-1.13-.35-.36-.08-.59,0-.69.23l.73,2.34c.19.63.35,1.15.47,1.58.12.43.21.64.25.64l1.67-3.04c.05-.08.1.2.15.82.05.63.07.9.07.82h.15c.44,0,.79.16,1.05.47.27.31.51.68.73,1.11.22.43.44.82.65,1.17.22.35.52.57.91.64v7.38c-.39.47-.69,1.04-.91,1.7-.22.66-.44,1.29-.65,1.87-.22.58-.47,1.09-.76,1.52-.29.43-.68.64-1.16.64h-.44c-.82-.55-1.64-1.02-2.44-1.41s-1.61-.94-2.43-1.64c-.49-.39-.76-1-.84-1.82-.07-.82-.1-1.72-.07-2.69.02-.98.04-1.91.04-2.81s-.17-1.62-.51-2.17c-.1.16-.17.43-.22.82-.05.39-.11.78-.18,1.17-.07.39-.16.74-.25,1.05-.1.31-.24.47-.44.47h-.15c-.1,0-.15-.04-.15-.12s-.02-.57-.07-1.46c-.05-.9-.08-1.85-.11-2.87-.02-1.01-.06-1.93-.11-2.75-.05-.82-.1-1.27-.15-1.35,0-.08-.08.06-.25.41-.17.35-.35.76-.54,1.23-.19.47-.38.88-.55,1.23-.17.35-.28.49-.33.41-.1-.16-.18-.45-.25-.88-.07-.43-.16-.96-.25-1.58l-.22-1.99-.36-3.75.94-2.58ZM52.04,380c-.24,0-.36.19-.36.59s.12.58.36.58c.19,0,.29-.2.29-.58s-.1-.59-.29-.59ZM52.69,371.45c-.15,0-.22.2-.22.59s.07.58.22.58c.19,0,.29-.19.29-.58s-.1-.59-.29-.59ZM54.07,300.94l.44-.47h-.44v.47ZM55.82,299.3c.05-.16,0-.23-.15-.23s-.22.08-.22.23c.05.16.12.23.22.23s.15-.08.15-.23ZM56.54,299.77c-.1-.08-.15.02-.15.29s.05.41.15.41c.1-.08.15-.19.15-.35s-.05-.27-.15-.35ZM59.02,365.71c-.15.39-.34.68-.58.88-.24.2-.47.37-.69.53-.22.16-.4.35-.54.58-.15.23-.22.59-.22,1.05.48,0,.96-.06,1.42-.18.46-.12.69-.68.69-1.7v-.53c0-.27-.02-.49-.07-.64ZM58.22,344.74c0,.23.04.53.11.88s.23.53.47.53c.05,0,.08-.02.11-.06.02-.04.06-.06.11-.06-.1-.86-.36-1.29-.8-1.29ZM59.23,369.81c0,.31.15.76.44,1.35.29.59.53.88.73.88h.29l1.02-2.23v-.7c-.1-.16-.17-.31-.22-.47-.1-.31-.15-.51-.15-.59l.29-.7c.1-.16.17-.33.22-.53.05-.19.1-.37.15-.53l.44-.47c0-.16-.05-.45-.15-.88-.1-.43-.19-.72-.29-.88l-.07-.12h-.07l-.15.12c-.1.63-.35,1.25-.76,1.87-.41.62-.62,1.13-.62,1.52,0,.23.01.47.04.7.02.23.13.43.33.59-.15,0-.35.06-.62.18-.27.12-.42.18-.47.18-.05.08-.12.18-.22.29-.1.12-.15.25-.15.41ZM62.14,359.5h.36v-.47l-.36.47ZM69.48,343.69l.36-.35h-.36v.35ZM72.68,336.43c-.15.39-.34.68-.58.88-.24.2-.47.37-.69.53-.22.16-.4.35-.54.58s-.22.59-.22,1.05c.48,0,.96-.06,1.42-.18.46-.12.69-.68.69-1.7v-.53c0-.27-.02-.49-.07-.64ZM72.97,358.68c0-.16-.01-.29-.04-.41-.02-.12-.04-.25-.04-.41l.07.82ZM75.15,331.86c-.05.16-.12.29-.22.41-.1.12-.17.22-.22.29h.44c.1,0,.19-.23.29-.7h-.29ZM75.88,336.08c-.24,0-.36.16-.36.47s.12.47.36.47c.15,0,.22-.16.22-.47s-.07-.47-.22-.47ZM80.38,376.01c-.19,0-.29.16-.29.47s.1.47.29.47c.15,0,.22-.16.22-.47s-.07-.47-.22-.47ZM82.06,373.79c-.15,0-.22.18-.22.53s.07.53.22.53c.24,0,.36-.18.36-.53s-.12-.53-.36-.53ZM85.62,369.22c-.44,0-.69.27-.76.82-.07.55-.11,1.09-.11,1.64.39,0,.63-.31.73-.94.1-.62.15-1.13.15-1.52ZM86.64,368.64c-.19.16-.32.41-.36.76-.05.35-.07.68-.07,1h.44v-1.76Z"/>
          <path class="cls-2" d="M111.71,381.99c-.1.16-.18.41-.25.76-.07.35-.11.57-.11.64,0-.31-.07-.47-.22-.47-.1,0-.34.02-.73.06-.39.04-.63.02-.73-.06-.05,0-.29-.12-.73-.35-.44-.23-.78-.43-1.02-.58-.05,0-.12-.04-.22-.12l-.29-.23h-.29l-.15.23c-.05.08-.1.12-.15.12l-.15.12-.07-.12c.05-.16.02-.45-.07-.88-.1-.43-.19-.72-.29-.88-.1-.16-.33-.31-.69-.47-.36-.16-.59-.23-.69-.23v-1.05l-1.16,1.29c0,.08-.07-.02-.22-.29-.15-.27-.24-.49-.29-.64-.1-.16-.11-.47-.04-.94.07-.47-.01-.74-.25-.82-.24.16-.36.35-.36.58v.7c0,.23-.05.45-.15.64-.1.2-.34.29-.73.29-.87,0-1.43-.19-1.67-.58-.24-.39-.36-.86-.36-1.41s.01-1.07.04-1.58c.02-.51-.13-.84-.47-1-.1-.08-.36-.16-.8-.23-.44-.08-.75-.12-.94-.12l.36-1.05c-.48-.08-.9-.31-1.24-.7-.34-.39-.63-.88-.87-1.46-.24-.58-.47-1.21-.69-1.87-.22-.66-.42-1.27-.62-1.82-.05-.08-.17-.35-.36-.82-.19-.47-.34-.82-.44-1.05-.63-1.25-1.02-2.3-1.16-3.16-.15-.86-.34-1.91-.58-3.16l-.15-.23-.15-.23c-.05-.31-.11-.94-.18-1.87s-.11-1.52-.11-1.76v-.82c0-.55.05-1.05.15-1.52.1-.47.15-1.01.15-1.64v-.59c0-.08-.05-.23-.15-.47-.1-.23-.15-.39-.15-.47v-2.11c0-.31.02-.88.07-1.7.05-.82.12-1.68.22-2.58.1-.9.24-1.68.44-2.34.19-.66.44-1,.73-1,0,.39-.05.72-.15,1-.1.27-.15.57-.15.88.19,0,.48.04.87.12.39.08.65-.08.8-.47.05-.16.12-.47.22-.94.1-.47.15-.74.15-.82h.22v1.05c.1,0,.24.06.44.18.19.12.31.14.36.06l.15-.23.15-.23c.1,0,.3-.06.62-.18.31-.12.5-.21.55-.29v-.58c0-.86-.12-1.66-.36-2.4-.24-.74-.36-1.58-.36-2.52.29,0,.56.08.8.23.24.16.51.23.8.23s.46-.16.51-.47c-.1-.39-.25-.59-.47-.59s-.42-.08-.62-.23l-.07-.23c0-.31.1-.72.29-1.23.19-.51.31-.92.36-1.23.05,0,.18-.02.4-.06.22-.04.37-.06.47-.06s.4.04.91.12c.51.08.76.35.76.82,0,.08-.05.23-.15.47-.1.23-.15.39-.15.47v.35c.39,0,.85-.08,1.38-.23.53-.16.92-.51,1.16-1.05.1-.16.18-.6.25-1.35.07-.74.23-1.11.47-1.11,0,.78.27,1.17.8,1.17.15,0,.33-.02.54-.06.22-.04.38-.18.47-.41.05-.23.05-.47,0-.7l-.15-.47h-1.02c.1,0,.17-.1.22-.29.05-.19.07-.33.07-.41,0-.16-.02-.41-.07-.76-.05-.35-.12-.53-.22-.53.05,0,.1-.04.15-.12l.15.12s.18.12.4.35c.22.23.38.39.47.47.1.08.34.18.73.29.39.12.63.33.73.64.1.63.17,1.25.22,1.87.05.63.24,1.21.58,1.76.05,0,.1-.02.15-.06.05-.04.1-.06.15-.06v-.94l.15.12h.07c.05.08.16.25.33.53.17.27.28.41.33.41h.22c.15,0,.4-.06.76-.18.36-.12.59-.21.69-.29v-.23c0-.39-.16-.64-.47-.76-.32-.12-.52-.25-.62-.41l-.07-.12c0-.08.02-.16.07-.23.05-.16.13-.37.25-.64.12-.27.21-.41.25-.41.1,0,.29.16.58.47.29.31.48.51.58.59h.07c.53,0,.85-.29.94-.88.1-.59.31-1.07.65-1.46.1.16.24.47.44.94.19.47.34.78.44.94.05,0,.1.12.15.35.05.23.1.39.15.47l.15.12.07-.12s.12-.08.22-.23c.05-.08.1-.12.15-.12v-3.75l.51-.35c-.1.86-.08,1.76.04,2.69.12.94.3,1.84.54,2.69l.44-.35v-4.33c.05.08.1.12.15.12s.1.02.15.06c.05.04.1.06.15.06.15,0,.22.12.22.35.1.16.18.61.25,1.35.07.74.11,1.23.11,1.46h.29c.05-.08.15-.23.29-.47s.24-.43.29-.59h2.47c-.1.16-.21.49-.33,1-.12.51-.18.84-.18,1-.05.08-.04.22.04.41.07.2.13.33.18.41.1.16.33.27.69.35.36.08.62.12.76.12-.05.23-.16.35-.33.35s-.35.02-.54.06c-.19.04-.4.14-.62.29-.22.16-.38.55-.47,1.17,0-.23-.05-.64-.15-1.23-.1-.59-.17-.96-.22-1.11,0-.16-.02-.39-.07-.7-.05-.31-.1-.55-.15-.7-.15-.39-.25-.53-.33-.41-.07.12-.23.18-.47.18,0,1.09.1,1.91.29,2.46.19.55.29,1.33.29,2.34h-.51l-.15.47.87,1.41c.05.08.08.08.11,0,.02-.08.06-.12.11-.12v-.35l-.15-.47c-.05-.16-.07-.31-.07-.47,0-.08.02-.16.07-.23l.15-.23h.22c.34,0,.56.29.65.88.1.58.1,1.07,0,1.46.15-.78.34-1.25.58-1.41.24-.16.63-.23,1.16-.23v2.23c.53,0,.88-.04,1.05-.12.17-.08.47.08.91.47-.05,0-.13.04-.25.12-.12.08-.23.16-.33.23v.35c0,.63.24,1.02.73,1.17.48.16.85.23,1.09.23,0,.08-.02.12-.07.12-.05.16-.11.35-.18.59-.07.23-.13.35-.18.35-.1,0-.19-.04-.29-.12-.1-.08-.19-.13-.29-.17-.1-.04-.17-.1-.22-.18l-.29-.23-.29-.23s-.15.06-.29.18-.24.22-.29.29c.53.78,1.02,1.72,1.45,2.81-.29.39-.55.53-.76.41-.22-.12-.5-.18-.84-.18-.05.16-.07.27-.07.35v.23c.05.16.13.39.25.7.12.31.21.51.25.59.05.16.21.41.47.76.27.35.4.57.4.64,0,.23-.07.58-.22,1.05s-.27.74-.36.82c-.05-.39-.24-.59-.58-.59-.1,0-.19.02-.29.06-.1.04-.17.22-.22.53.19.08.29.27.29.58v.82c0,.55-.07.92-.22,1.11-.15.2-.33.33-.55.41-.22.08-.47.12-.76.12s-.56.04-.8.12c-.29.16-.38.47-.25.94.12.47.04.78-.25.94-.15-.47-.28-.74-.4-.82-.12-.08-.3-.12-.54-.12-.53,0-.86.2-.98.59-.12.39-.33.66-.62.82l-.58-.47c-.1-.08-.24-.23-.44-.47-.19-.23-.34-.39-.44-.47l-.22.47.22.47c-.19.47-.32.92-.36,1.35-.05.43-.1.84-.15,1.23-.05.39-.13.76-.25,1.11-.12.35-.35.64-.69.88.15-.55.15-1.07,0-1.58-.15-.51-.41-.76-.8-.76-.24,0-.42.14-.55.41-.12.27-.23.61-.33,1,0-.08-.01-.19-.04-.35-.02-.16-.04-.27-.04-.35,0-.16.01-.29.04-.41.02-.12.04-.21.04-.29s.05-.29.15-.64c.1-.35.15-.57.15-.64,0-.31-.1-.47-.29-.47h-.44c-.24,0-.57.16-.98.47-.41.31-.62.66-.62,1.05,0,.08.02.16.07.23.05.16.19.33.44.53.24.2.39.37.44.53.05.08.05.51,0,1.29-.05.78-.05,1.25,0,1.41,0,.08.02.2.07.35l.15.47v.12c0,.08.02.16.07.23-.39.39-.7.7-.94.94-.24.23-.48.43-.73.58-.24.16-.39.23-.44.23,0-.62.12-1.09.36-1.41.24-.31.36-.78.36-1.41s-.08-.94-.25-.94h-.76c0,.16.02.37.07.64.05.27.07.49.07.64-.05.31-.17.86-.36,1.64-.1.31-.17.66-.22,1.05h-.15c0-.23-.04-.62-.11-1.17-.07-.55-.28-.74-.62-.59-.19,0-.57.1-1.13.29-.56.2-.96.37-1.2.53-.05.08-.12.16-.22.23l-.29.23h-.44c0-.86-.24-1.6-.73-2.22,0,.08-.1.12-.29.12v2.22c-.34,0-.55-.31-.62-.94-.07-.62-.28-.94-.62-.94,0,.23-.02.61-.07,1.11-.05.51-.07.88-.07,1.11,0,.16.07.47.22.94.15.47.27.74.36.82l.44.23c.29.16.51.23.65.23.68.23,1.32.45,1.93.64.6.2,1.2.45,1.78.76.53.31,1.1.53,1.71.64.61.12,1.17.37,1.71.76.15.08.36.22.65.41.29.2.44.33.44.41.05.08.1.31.15.7.05.39.1.63.15.7.05,0,.22.08.51.23.29.16.51.23.65.23h.29c.29,0,.54-.08.76-.23.22-.16.47-.23.76-.23.53,0,.99.1,1.38.29.39.2.87.29,1.45.29,0,.63.1,1,.29,1.11.19.12.41.18.65.18.39,0,.62-.1.69-.29.07-.19.23-.29.47-.29.19,0,.31.08.36.23.05.16.07.33.07.53s.02.37.07.53c.05.16.17.23.36.23.34,0,.47-.25.4-.76-.07-.51.06-.76.4-.76.05,0,.11.02.18.06.07.04.13.06.18.06.1.08.22.12.36.12s.29.04.44.12c.19.08.39.12.58.12.19.16.29.43.29.82s.15.59.44.59h.07l1.45-2.23h2.54l-.22.47c.15.55.45.84.91.88.46.04.81.33,1.05.88l-.65.58c0,.55-.02,1.05-.07,1.52-.05.39-.08.84-.11,1.35-.02.51-.04.92-.04,1.23-.05.39-.1.61-.15.64-.05.04-.19.06-.44.06v.59h.8v2.34h-.07c-.1,0-.15-.04-.15-.12-.05,0-.1-.06-.15-.18-.05-.12-.1-.18-.15-.18-.1-.16-.29-.35-.58-.59-.29-.23-.49-.39-.58-.47l-.15.12c0,.39.02.62.07.7.05.08.11.12.18.12s.13.02.18.06c.05.04.07.18.07.41,0,.39-.08.72-.25,1-.17.27-.38.41-.62.41h-.36c-.05-.08-.32-.16-.8-.23-.48-.08-.78-.16-.87-.23h-.29l-.15.23c-.05.08-.07.16-.07.23-.1,0-.24.04-.44.12-.19.08-.34.12-.44.12v-1.64c-.97.16-1.82.62-2.54,1.41v-2.11c-.05-.08-.1-.12-.15-.12h-.15c-.05.08-.11.29-.18.64-.07.35-.11.6-.11.76h-1.38l-.36.82c0-.08-.07-.23-.22-.47-.1,0-.29-.08-.58-.23-.19-.08-.36-.12-.51-.12-.1-.16-.07-.37.07-.64.15-.27.22-.49.22-.64-.05,0-.19-.02-.44-.06-.24-.04-.39-.06-.44-.06l-.15.23-.15.23c-.1,0-.29.02-.58.06-.29.04-.48.06-.58.06v-1.17c-.05.08-.1.19-.15.35-.05.16-.1.23-.15.23h-.22s-.12-.08-.22-.23c-.1-.16-.15-.27-.15-.35h-.29c-.24.23-.41.57-.51,1-.1.43-.18.86-.25,1.29-.07.43-.16.78-.25,1.05-.1.27-.22.41-.36.41-.24,0-.39-.12-.44-.35-.05-.23-.09-.51-.11-.82-.02-.31-.06-.59-.11-.82-.05-.23-.22-.35-.51-.35h-.22ZM92.16,342.4c-.15,0-.22.14-.22.41s.07.41.22.41c.1,0,.15-.13.15-.41s-.05-.41-.15-.41ZM94.7,346.5c-.15,0-.22.14-.22.41s.07.41.22.41c.1,0,.15-.14.15-.41s-.05-.41-.15-.41ZM94.92,344.16c-.19.23-.29.58-.29,1.05.29,0,.51-.19.65-.59l-.36-.47ZM94.92,352c.05-.16.01-.23-.11-.23s-.16.08-.11.23c.05.16.1.23.15.23s.07-.08.07-.23ZM96.16,341c-.24,0-.41.27-.51.82-.1.55-.15.9-.15,1.05.1,0,.31-.16.65-.47.34-.31.51-.55.51-.7v-.23c-.1-.16-.19-.27-.29-.35-.1-.08-.17-.12-.22-.12ZM96.37,342.75c-.1-.08-.15.1-.15.53s.05.61.15.53c.1-.16.15-.33.15-.53s-.05-.37-.15-.53ZM98.26,356.57c0,.16-.04.31-.11.47-.07.16-.09.31-.04.47.05,0,.13.12.25.35.12.23.23.39.33.47.19-.08.29-.37.29-.88v-1c0-.54-.06-1-.18-1.35-.12-.35-.18-.8-.18-1.35,0-.39.06-.72.18-1,.12-.27.3-.41.54-.41h.15c0,.08.08.25.25.53.17.28.28.41.33.41h.29c.05-.08.12-.16.22-.23l.29-.23c.1-.08.3-.14.62-.18.31-.04.5-.14.54-.29.05-.08.1-.37.15-.88.05-.51.1-.8.15-.88.05,0,.21-.08.47-.23.27-.16.47-.23.62-.23h.29s.19.08.44.23c.24.16.39.23.44.23.34,0,.74-.27,1.2-.82.46-.54.81-.9,1.05-1.05.1.7.21,1.21.33,1.52.12.31.38.47.76.47.1,0,.3-.02.62-.06.31-.04.52-.21.62-.53l.51-3.63c.24-.16.59-.35,1.05-.58.46-.23.81-.35,1.05-.35h.15c.1.08.25.23.47.47.22.23.35.39.4.47h.29s.11-.08.18-.23c.07-.16.11-.27.11-.35.05-.16.11-.59.18-1.29.07-.7.11-1.17.11-1.41.15,0,.47-.06.98-.18.51-.12.84-.21.98-.29.19,0,.48-.08.87-.23.19-.08.39-.12.58-.12v-3.75c0,.31.07.47.22.47.19.31.44.63.73.94.15.23.29.39.44.47l.29-.47c-.39-1.01-.65-1.89-.8-2.63-.15-.74-.53-1.54-1.16-2.4-.24-.31-.64-.76-1.2-1.35-.56-.59-.98-.88-1.27-.88-.53,0-.99.22-1.38.64-.39.43-.78.9-1.16,1.41-.39.51-.81.98-1.27,1.41-.46.43-1.03.64-1.71.64h-.22c-.1,0-.3-.13-.62-.41-.32-.27-.5-.45-.55-.53h-.29c0,.08-.04.29-.11.64-.07.35-.13.61-.18.76l-.58.94c-.05.08-.12.16-.22.23-.05.08-.12.12-.22.12h-.07c-.05.08-.15.25-.29.53-.15.27-.24.45-.29.53-.1,0-.29-.02-.58-.06-.29-.04-.48-.02-.58.06-.05,0-.11.2-.18.59-.07.39-.11.63-.11.7s-.04.16-.11.23c-.07.08-.13.16-.18.23l-.22-.47c-1.41,1.48-2.25,3.47-2.54,5.97-.29-.31-.53-.23-.73.23-.19.47-.34.82-.44,1.05,0,.16-.05.47-.15.94-.1.47-.15.78-.15.94h-.51l-.58-2.23c0,.08-.01.23-.04.47-.02.23-.04.43-.04.59,0,.63.06,1.13.18,1.52.12.39.18.9.18,1.52,0,.08-.01.16-.04.23-.02.08-.04.16-.04.23v.35c-.05.16-.19.29-.44.41-.24.12-.41.14-.51.06v3.16h-.73v.59c.29,0,.55-.08.76-.23.22-.16.5-.23.84-.23ZM97.46,359.27c.05-.16.01-.23-.11-.23s-.16.08-.11.23c.05.16.1.23.15.23s.07-.08.07-.23ZM97.25,336.9c0,.08.04.16.11.23.07.08.11.16.11.23.1,0,.3.04.62.12.31.08.52.12.62.12,0-.78-.15-1.17-.44-1.17h-.15c-.1,0-.24.06-.44.18-.19.12-.34.22-.44.29ZM98.12,338.3c-.15,0-.22.14-.22.41s.07.41.22.41c.1,0,.15-.14.15-.41s-.05-.41-.15-.41ZM98.26,331.63c0,.63.15,1.09.44,1.41.29.31.58.47.87.47,0-.86-.1-1.39-.29-1.58-.19-.19-.53-.29-1.02-.29ZM98.92,361.96c-.1,0-.15.16-.15.47s.05.47.15.47c.15,0,.22-.16.22-.47s-.07-.47-.22-.47ZM99.5,356.45c-.15,0-.22.18-.22.53s.07.53.22.53.22-.18.22-.53-.07-.53-.22-.53ZM99.5,335.02c0,.31.1.47.29.47.19-.08.3-.29.33-.64.02-.35.04-.6.04-.76-.15,0-.29.06-.44.18s-.22.33-.22.64v.12ZM99.5,342.4c0,.23.1.35.29.35v-.35c0-.08-.05-.18-.15-.29-.1-.12-.15-.21-.15-.29v.59ZM100.66,375.19c-.19,0-.29.16-.29.47v.47c.24-.16.5-.29.76-.41.27-.12.4-.45.4-1,0-.08-.01-.12-.04-.12s-.04-.04-.04-.12v-.12c-.1-.16-.28-.35-.55-.58-.27-.23-.45-.39-.54-.47l-.29.47-.07.23v.23c0,.08.02.12.07.12,0,.08.07.23.22.47s.27.35.36.35ZM100.37,377.07c-.15,0-.22.14-.22.41s.07.41.22.41.22-.13.22-.41-.07-.41-.22-.41ZM100.37,338.3h.29v-1.41h-.29v1.41ZM100.66,354.7c.05-.16.01-.23-.11-.23s-.18.08-.18.23.04.23.11.23.13-.08.18-.23ZM100.66,377.89c-.1,0-.15.1-.15.29s.05.29.15.29c.24-.16.24-.35,0-.59ZM100.88,335.49c.05-.16.01-.23-.11-.23s-.16.08-.11.23c.05.16.1.23.15.23s.07-.08.07-.23ZM100.66,372.38h.51v-.35h-.51v.35ZM101.46,378.47c.05-.16.01-.23-.11-.23s-.18.08-.18.23c.05.08.11.12.18.12s.11-.04.11-.12ZM101.75,376.48c-.15,0-.22.18-.22.53s.07.53.22.53.22-.17.22-.53-.07-.53-.22-.53ZM101.75,365.59h.29v-.47h-.29v.47ZM102.04,332.8c-.15,0-.22.16-.22.47s.07.47.22.47.22-.16.22-.47-.07-.47-.22-.47ZM102.33,333.27c-.15,0-.22.16-.22.47s.07.47.22.47.22-.16.22-.47-.07-.47-.22-.47ZM102.62,339.12c-.15,0-.22.16-.22.47s.07.47.22.47.22-.16.22-.47-.07-.47-.22-.47ZM102.62,374.73h.58l-.15-.23c-.05-.08-.1-.12-.15-.12l-.15-.12s-.1.04-.15.12v.35ZM103.21,332.8c-.05.16-.04.39.04.7.07.31.13.55.18.7h.29l.87-.47v-.23c0-.39-.08-.8-.25-1.23-.17-.43-.38-.72-.62-.88-.05.16-.15.39-.29.7-.15.31-.22.55-.22.7ZM104.59,374.61c-.24,0-.45.08-.62.23-.17.16-.25.43-.25.82h.87v-1.05ZM105.17,374.37v.53c0,.2.02.37.07.53l.15.7h.36v-2.93c-.39,0-.58.39-.58,1.17ZM105.39,332.8c-.1,0-.15.16-.15.47s.05.47.15.47c.19,0,.29-.16.29-.47s-.1-.47-.29-.47ZM105.39,337.83c-.1,0-.15.14-.15.41s.05.41.15.41c.19,0,.29-.14.29-.41s-.1-.41-.29-.41ZM105.97,330.34c-.24,0-.44.23-.58.7h.58v-.7ZM105.75,337.36c.1-.47.17-.86.22-1.17.05-.31.07-.7.07-1.17v-.7c0-.31-.1-.51-.29-.59v3.63ZM106.62,359.62l.22-.35h-.58l.36.35ZM107.42,371.09c-.15,0-.22.16-.22.47s.07.47.22.47.22-.16.22-.47-.07-.47-.22-.47ZM107.71,357.86c.05-.16.01-.23-.11-.23s-.18.08-.18.23c.1.47.19.47.29,0ZM107.71,379.29c.05-.16.01-.23-.11-.23s-.18.08-.18.23c.1.47.19.47.29,0ZM107.71,334.2c.19.47.36.88.51,1.23.15.35.39.53.73.53h.44c.15,0,.24-.16.29-.47-.05,0-.1-.08-.15-.23-.05-.16-.1-.23-.15-.23s-.18-.06-.4-.18c-.22-.12-.35-.21-.4-.29-.05,0-.1-.14-.15-.41-.05-.27-.1-.41-.15-.41h-.36l-.15.23c-.05.08-.07.16-.07.23ZM108.8,372.97c.05-.16-.04-.23-.25-.23s-.3.08-.25.23c.05.16.15.23.29.23s.22-.08.22-.23ZM109.67,373.44c.19,0,.39-.16.58-.47h-.58v.47ZM110.55,350.13h.29v-.47h-.29v.47ZM111.13,353.29v-.47h-.29l.29.47ZM110.91,346.73c0,.23.02.57.07,1,.05.43.12.86.22,1.29.1.43.22.82.36,1.17s.34.53.58.53l.07-.12.15-.23.15-.23c.05-.16.07-.54.07-1.17v-1.17c-.24,0-.46.16-.65.47-.1-.39-.22-.74-.36-1.05-.15-.31-.36-.47-.65-.47ZM112.15,330.92c0,.16.01.41.04.76.02.35.13.57.33.64.19,0,.29-.16.29-.47v-.23c0-.31-.07-.51-.22-.59-.15-.08-.29-.12-.44-.12ZM112.22,352h.29v-.59h-.29v.59ZM112.8,373.32c.53.47.9.94,1.09,1.41.1,0,.17-.04.22-.12l.15-.23c0-.16.01-.49.04-1,.02-.51.04-.84.04-1-.24,0-.5.12-.76.35-.27.23-.52.43-.76.59ZM112.8,381.17h.36c0-.39-.12-.7-.36-.94v.94ZM113.6,375.55c0,.39.02.82.07,1.29.05.47.24.7.58.7h.22c-.05-.47-.12-.92-.22-1.35-.1-.43-.32-.64-.65-.64ZM113.82,352.36c0,.16.01.49.04,1,.02.51.16.8.4.88.24-.08.36-.37.36-.88v-1h-.8ZM114.25,356.1v-.94l-.36.35.36.59ZM114.18,344.39c0,.08.02.16.07.23,0,.08.02.16.07.23l.15.23c.1-.62.34-.98.73-1.05.39-.08.73-.04,1.02.12-.1-.31-.24-.47-.44-.47h-.44c-.1,0-.32.02-.65.06-.34.04-.51.25-.51.64ZM116.43,345.09c-.1.08-.23.18-.4.29-.17.12-.25.29-.25.53h1.02l-.36-.82ZM115.93,332.8h.51v-.47h-.51v.47ZM116.43,380.58c-.1,0-.15.18-.15.53s.05.53.15.53c.19,0,.29-.18.29-.53s-.1-.53-.29-.53ZM117.31,352.82l.36-.47h-.58l.22.47ZM117.31,347.32c-.1,0-.15.16-.15.47s.05.47.15.47c.19,0,.29-.16.29-.47s-.1-.47-.29-.47ZM117.67,345.56c0-.16-.06-.23-.18-.23s-.18.08-.18.23c.05.16.11.23.18.23s.13-.08.18-.23ZM117.31,351.07h.36v-.47h-.36v.47ZM118.47,352.36c0-.16-.06-.23-.18-.23s-.16.08-.11.23c.05.16.11.23.18.23s.11-.08.11-.23ZM118.18,349.66h.29v-.47l-.29.47ZM118.47,342.4c-.15,0-.22.14-.22.41s.07.41.22.41.22-.13.22-.41-.07-.41-.22-.41ZM118.69,344.04c0,.86.12,1.54.36,2.05.24.51.44,1.11.58,1.81.15-.23.22-.43.22-.58v-.35c0-.16-.04-.41-.11-.76-.07-.35-.11-.57-.11-.64-.1-.55-.16-.94-.18-1.17-.02-.23-.28-.35-.76-.35ZM119.63,350.6c-.15,0-.22.14-.22.41s.07.41.22.41c.1,0,.15-.13.15-.41s-.05-.41-.15-.41ZM119.85,339.12c-.1,0-.15.18-.15.53s.05.49.15.41c.1-.08.15-.23.15-.47s-.05-.39-.15-.47ZM120.14,337.36c-.15,0-.22.16-.22.47s.07.47.22.47.22-.16.22-.47-.07-.47-.22-.47ZM121.3,345.56v-.47h-.87l.87.47ZM121.74,374.37c-.53,0-.8.31-.8.94.34,0,.65-.31.94-.94h-.15ZM121.59,338.65c-.15,0-.22.18-.22.53s.07.53.22.53.22-.17.22-.53-.07-.53-.22-.53ZM121.89,339.12c-.15,0-.22.16-.22.47s.07.47.22.47.22-.16.22-.47-.07-.47-.22-.47ZM122.98,376.48c0,.08.05.2.15.35l.15.23c.15,0,.3-.12.47-.35.17-.23.3-.43.4-.59l-.29-.47h-.29c-.05.08-.15.16-.29.23-.15.08-.24.16-.29.23v.35ZM123.56,380.58v-.35h-.29l.29.35ZM123.85,374.37c-.15,0-.22.14-.22.41s.07.41.22.41.22-.14.22-.41-.07-.41-.22-.41ZM124.72,374.73c-.19,0-.29.16-.29.47s.1.47.29.47c.1,0,.15-.16.15-.47s-.05-.47-.15-.47ZM126.68,381.17c-.34,0-.53.16-.58.47h.29c.05-.08.15-.16.29-.23.15-.08.22-.16.22-.23h-.22Z"/>
          <path class="cls-2" d="M166.58,379.88c-.39.08-.86.04-1.42-.12-.56-.16-1.13-.41-1.71-.76-.58-.35-1.12-.76-1.6-1.23-.48-.47-.82-.97-1.02-1.52v-.58c-.15-1.17-.38-2.09-.69-2.75-.32-.66-.64-1.21-.98-1.64-.34-.43-.65-.82-.94-1.17-.29-.35-.51-.8-.65-1.35-.05-.16-.06-.37-.04-.64.02-.27.04-.54.04-.82s-.05-.47-.15-.59c-.1-.12-.29-.14-.58-.06-.05.08-.11.31-.18.7-.07.39-.13.66-.18.82-.1.47-.29.96-.58,1.46-.29.51-.62,1-.98,1.46-.36.47-.68.94-.94,1.41-.27.47-.4.98-.4,1.52v.58c.1-.08.28-.19.55-.35.27-.16.45-.23.54-.23.05,0,.11.08.18.23.07.16.13.28.18.35v.12c0,.08.02.16.07.23,0,.39-.05.61-.15.64-.1.04-.21.06-.33.06s-.23.06-.33.18c-.1.12-.15.41-.15.88-.05,0-.16.23-.33.7-.17.47-.28.7-.33.7,0-.16-.17-.19-.51-.12-.34.08-.53.08-.58,0-.24-.62-.42-.9-.55-.82-.12.08-.38.12-.76.12-.19.47-.48.8-.87,1-.39.2-.79.41-1.2.64-.41.23-.76.51-1.05.82-.29.31-.44.74-.44,1.29h-4.07c-.05.39-.16.59-.33.59h-.54c-1.21,0-2.34-.39-3.38-1.17-1.04-.78-1.56-2.19-1.56-4.22,0-.7.01-1.33.04-1.87.02-.54.16-1.17.4-1.87-.1-.16-.28-.29-.54-.41-.27-.12-.45-.18-.55-.18s-.28.06-.54.18c-.27.12-.45.25-.54.41.1.16.17.41.22.76.05.35.07.61.07.76,0,.08.01.22.04.41.02.2.04.33.04.41-.58,0-1.01-.27-1.27-.82-.27-.55-.46-1.21-.58-1.99-.12-.78-.18-1.58-.18-2.4s-.05-1.5-.15-2.05c0-.08-.05-.27-.15-.59-.1-.31-.22-.64-.36-1-.15-.35-.28-.68-.4-1-.12-.31-.18-.51-.18-.59-.05-.23-.11-.62-.18-1.17-.07-.54-.15-1.15-.22-1.82-.07-.66-.15-1.27-.22-1.82-.07-.54-.11-.94-.11-1.17.1-.08.23-.23.4-.47.17-.23.28-.43.33-.58v-.12c0-.55-.06-1.01-.18-1.41-.12-.39-.18-.78-.18-1.17s.07-.84.22-1.35c.15-.51.36-.76.65-.76h.22c.1.08.18.23.25.47.07.23.11.43.11.59l.65-.47c-.15-.47-.36-.78-.65-.94-.29-.16-.57-.29-.84-.41-.27-.12-.51-.27-.73-.47-.22-.19-.33-.53-.33-1,0-.31.07-.53.22-.64.15-.12.31-.19.51-.23.19-.04.36-.12.51-.23.15-.12.22-.41.22-.88h2.25v-1.05l-1.82-1.17v-.7c0-1.48.16-2.54.47-3.16.31-.62.68-1.05,1.09-1.29.41-.23.81-.39,1.2-.47.39-.08.65-.35.8-.82-.05,0-.16-.06-.33-.17-.17-.12-.28-.25-.33-.41l-.07-.23c0-.7.13-1.19.4-1.46.27-.27.58-.47.94-.59s.73-.23,1.09-.35c.36-.12.64-.29.84-.53.05,0,.07-.27.07-.82,0-.23-.03-.47-.07-.7.1-.16.3-.45.62-.88.31-.43.5-.72.54-.88v-.94l-.73-1.64v-.59c.05-.16.16-.35.33-.59.17-.23.3-.39.4-.47l.15-.12.15.12c.1.08.19.2.29.35.1.16.15.27.15.35h2.83c0,.16.05.35.15.59.1.23.19.35.29.35.68.08,1.19-.12,1.53-.59.34-.47.65-1,.94-1.58.29-.59.64-1.11,1.05-1.58.41-.47,1.01-.66,1.78-.59.15,0,.48.29,1.02.88.53.59,1.11,1.25,1.74,1.99.63.74,1.24,1.46,1.82,2.17s.99,1.17,1.24,1.41c.24.23.46.61.65,1.11.19.51.36,1.09.51,1.76.15.67.25,1.29.33,1.87.07.59.08,1.04.04,1.35.29.08.52.29.69.64.17.35.33.72.47,1.11.15.39.29.72.44,1,.15.27.36.41.65.41-.05.23-.02.59.07,1.05.1.47.21.98.33,1.52.12.55.24,1.05.36,1.52.12.47.18.82.18,1.05v.7l.15.23c.05.08.12.12.22.12v.35c0,.08.02.2.07.35-.48,0-.92-.16-1.31-.47-.39-.31-.8-.47-1.24-.47,0,.08.06.55.18,1.41.12.86.28,1.29.47,1.29h2.83c.1,0,.12.16.07.47-.05.31-.13.66-.25,1.05-.12.39-.23.76-.33,1.11-.1.35-.12.61-.07.76l.73,3.87c.1.63.31.9.65.82.34-.08.53.23.58.94,0,.16-.11.47-.33.94-.22.47-.3.82-.25,1.05.05.39.17.7.36.94.19.23.39.45.58.64.19.2.38.43.55.7.17.27.23.57.18.88l-.22,2.46c0,.16.1.35.29.59.19.23.42.45.69.64.27.2.52.41.76.64.24.23.39.43.44.59,0,.08.01.14.04.17.02.04.04.14.04.29.1.47.19,1.09.29,1.87.1.78.19,1.25.29,1.41.05.16.31.39.8.7.48.31,1.03.66,1.64,1.05.61.39,1.2.82,1.78,1.29.58.47.99.9,1.24,1.29-.44.16-.69.41-.76.76-.07.35-.08.72-.04,1.11.05.39.1.8.15,1.23.05.43-.02.82-.22,1.17-.19.35-.59.64-1.2.88-.61.23-1.51.35-2.73.35-.29,0-.51-.12-.65-.35-.15-.23-.27-.49-.36-.76-.1-.27-.19-.59-.29-.94-.1-.35-.24-.64-.44-.88ZM138.75,363.25c.24.39.47,1.07.69,2.05.22.98.47,1.58.76,1.82.48.23.87.43,1.16.58.29.16.56.25.8.29.24.04.48.08.73.12.24.04.56.06.94.06.48,0,.82-.06,1.02-.18.19-.12.36-.27.51-.47.15-.19.3-.41.47-.64.17-.23.47-.51.91-.82.1-.08.4-.17.91-.29s.81-.21.91-.29c.58-.39,1.09-1.25,1.53-2.58.44-1.33.77-2.42,1.02-3.28.1-.39.31-.64.65-.76.34-.12.61-.25.8-.41v-.47c-.05-.08-.19-.23-.44-.47-.24-.23-.36-.43-.36-.59s.12-.45.36-.88c.24-.43.39-.64.44-.64.39-2.03.71-4.39.98-7.09.27-2.69.4-5.02.4-6.97,0-1.01-.15-1.81-.44-2.4-.29-.59-.68-1.01-1.16-1.29-.48-.27-1.01-.45-1.56-.53-.56-.08-1.13-.12-1.71-.12-.15,0-.5.23-1.05.7-.56.47-1.14,1-1.74,1.58-.61.58-1.15,1.13-1.64,1.64-.48.51-.75.8-.8.88,0,.16-.05.53-.15,1.11-.1.58-.17.96-.22,1.11-.15.08-.27.16-.36.23-.05.08-.12.12-.22.12-.05,0-.1.04-.15.12l-1.38,2.11s-.07.04-.07.12v.23c0,.39.07.64.22.76s.22.49.22,1.11c0,.55-.01,1-.04,1.35-.02.35-.07.7-.15,1.05-.07.35-.16.76-.25,1.23-.1.47-.22,1.05-.36,1.76-.19,1.02-.48,1.78-.87,2.28-.39.51-.79.88-1.2,1.11-.41.23-.76.41-1.05.53-.29.12-.44.33-.44.64,0,.7.12,1.17.36,1.41.24.23.53.39.87.47.34.08.67.16.98.23.31.08.52.35.62.82-.15.31-.36.63-.65.94-.29.31-.56.51-.8.58ZM143.11,370.28c.1-.16.05-.23-.15-.23s-.27.08-.22.23c.05.16.12.23.22.23s.15-.08.15-.23ZM143.83,369.22c-.19,0-.29.17-.29.53s.1.53.29.53.29-.18.29-.53-.1-.53-.29-.53ZM144.2,338.65h.36v-.59h-.36v.59ZM147.11,369.22c.1-.16.27-.37.51-.64.24-.27.36-.6.36-1h-.87v1.64ZM150.67,327.41c.05-.16,0-.23-.15-.23s-.22.08-.22.23c.1.16.18.23.25.23s.11-.08.11-.23ZM150.3,367.58h.36v-.47h-.36v.47ZM150.67,369.22c-.19,0-.29.17-.29.53s.1.53.29.53c.24,0,.36-.18.36-.53s-.12-.53-.36-.53ZM151.39,360.91c0,.39.11.62.33.7.22.08.42.12.62.12h.58l-.36-2.11c-.19.08-.44.22-.73.41-.29.2-.44.49-.44.88ZM151.76,327.88c-.15,0-.22.18-.22.53s.07.53.22.53c.19,0,.29-.18.29-.53s-.1-.53-.29-.53ZM155.83,366.06h.65v-1.17h-.65v1.17Z"/>
          <path class="cls-2" d="M185.41,379.76c-.1.08-.29.27-.58.59-.29.31-.48.51-.58.58-.44.16-.93-.1-1.49-.76-.56-.66-1.08-1-1.56-1-.24,0-.41.08-.51.23-.1.16-.18.33-.25.53-.07.19-.18.37-.33.53-.15.16-.41.23-.8.23v-1.99c-.05.08-.12.16-.22.23-.19.16-.32.23-.36.23-.15-.08-.32-.37-.51-.88-.19-.51-.39-1.03-.58-1.58-.19-.54-.36-1.07-.51-1.58-.15-.51-.22-.84-.22-1,0-.23.01-.47.04-.7.02-.23.16-.43.4-.59-.39,0-.78-.1-1.16-.29-.39-.19-.7-.41-.94-.64-.24-2.26-.45-4.35-.62-6.27-.17-1.91-.25-4-.25-6.27v-4.22c0-1.41.12-2.81.36-4.22,0-.16.12-.57.36-1.23.24-.66.36-1.07.36-1.23v-.47c0-.86-.06-1.6-.18-2.22-.12-.62-.18-1.41-.18-2.34v-1.76c0-.78.02-1.56.07-2.34.05-.78.12-1.52.22-2.23.1-.7.22-1.21.36-1.52v-32.91c.39-.62.58-1.17.58-1.64,0-.55-.1-.98-.29-1.29-.19-.31-.29-.7-.29-1.17,0-.39.25-.76.76-1.11.51-.35.86-.53,1.05-.53.34,0,.51.2.51.59s.15.59.44.59c.39,0,.59-.35.62-1.05.02-.7.04-1.25.04-1.64.39,0,.82.16,1.31.47.48.31.73.9.73,1.76,0,.47-.06.84-.18,1.11-.12.27-.3.61-.54,1,0,.16.04.31.11.47.07.16.18.23.33.23.05,0,.15-.08.29-.23.15-.16.22-.31.22-.47v.94c.34,0,.62.02.84.06.22.04.33-.25.33-.88v-.59c-.05-.23-.1-.55-.15-.94-.05-.39-.1-.78-.15-1.17-.05-.39-.1-.82-.15-1.29l-.73-.59c.19-.31.36-.51.51-.59h.15c.68,0,1.06.47,1.16,1.41.1.94.12,1.84.07,2.69.48,0,.81-.14.98-.41.17-.27.3-.57.4-.88.1-.31.19-.6.29-.88.1-.27.29-.41.58-.41.05,0,.17.27.36.82.19.55.39,1.15.58,1.82.19.66.36,1.33.51,1.99.15.66.22,1.11.22,1.35,0,.86-.12,1.84-.36,2.93-.24,1.09-.41,2.15-.51,3.16-.05.31-.11.49-.18.53-.07.04-.15.04-.22,0-.07-.04-.16-.08-.25-.12-.1-.04-.19.02-.29.18-.15.16-.32.49-.51,1-.19.51-.36,1.07-.51,1.7-.15.63-.25,1.21-.33,1.76-.07.55-.08.98-.04,1.29,0,.08.08.35.25.82.17.47.3.74.4.82v.59c-.1.16-.19.53-.29,1.11-.1.59-.15.96-.15,1.11,0,.23.07.51.22.82.05.23.12.51.22.82-.1.16-.21.55-.33,1.17-.12.63-.23,1.05-.33,1.29.1.31.24.55.44.7.19.16.39.33.58.53.19.2.36.49.51.88.15.39.22.98.22,1.76,0,.55-.06,1.02-.18,1.41-.12.39-.18.86-.18,1.41,0,.39.01.68.04.88.02.2.08.49.18.88.15,0,.4.04.76.12.36.08.73.14,1.09.18.36.04.71.1,1.05.18.34.08.58.12.73.12h.36c.24,0,.42-.06.55-.18.12-.12.18-.49.18-1.11h.8c.48,0,.77.14.87.41.1.27.27.41.51.41h.15s.07-.04.07-.12.1-.29.29-.64c.19-.35.34-.53.44-.53h.15c.34,0,.58.14.73.41.15.27.29.55.44.82.15.27.3.55.47.82.17.27.42.41.76.41s.56-.14.65-.41c.1-.27.17-.55.22-.82.05-.27.15-.55.29-.82.15-.27.48-.41,1.02-.41,0,1.17-.06,1.95-.18,2.34-.12.39-.25.69-.4.88-.15.2-.28.35-.4.47-.12.12-.18.45-.18,1v1.05c0,.08.08.35.25.82.17.47.3.74.4.82,0,.16-.04.43-.11.82-.07.39-.16.8-.25,1.23-.1.43-.24.8-.44,1.11-.19.31-.39.39-.58.23-.1,0-.23-.18-.4-.53-.17-.35-.28-.57-.33-.64h-.36c0,.08-.05.18-.15.29-.1.12-.15.22-.15.29v.59c0,.16.05.55.15,1.17.1.63.15.98.15,1.05v1.17c-.1-.08-.28-.17-.55-.29-.27-.12-.42-.18-.47-.18h-.22c-.29,0-.5.18-.62.53-.12.35-.23.74-.33,1.17-.1.43-.23.82-.4,1.17-.17.35-.42.53-.76.53-.53,0-1.03-.19-1.49-.59-.46-.39-1.01-.59-1.64-.59-.19,0-.34.02-.44.06-.1.04-.24.18-.44.41.05-.16.1-.45.15-.88.05-.43.12-.72.22-.88l.29-.94c-.1-.47-.25-.88-.47-1.23-.22-.35-.44-.68-.65-1-.22-.31-.4-.68-.54-1.11-.15-.43-.22-.96-.22-1.58,0-.39.07-1,.22-1.82.15-.82.36-1.23.65-1.23l.29.23c.19.16.34.23.44.23l.15-.23.15-.23c0-.62-.17-1.27-.51-1.93-.34-.66-.7-1-1.09-1h-.58c.1.08.29.25.58.53.29.27.48.49.58.64v.23c0,.23-.27.68-.8,1.35-.53.66-.9,1.27-1.09,1.82-.19,1.02-.41,1.72-.65,2.11-.24.39-.47.72-.69,1-.22.27-.41.63-.58,1.05-.17.43-.25,1.15-.25,2.17h.07c-.48-.23-.84-.37-1.05-.41-.22-.04-.38-.1-.47-.18-.1-.08-.19-.23-.29-.47-.1-.23-.27-.66-.51-1.29h-.07s-.1-.04-.15-.12c-.44,0-.65.43-.65,1.29,0,.31.1.68.29,1.11.19.43.42.86.69,1.29.27.43.56.74.87.94.31.2.59.22.84.06-.24,1.09-.65,1.82-1.24,2.17s-1.02.92-1.31,1.7c.05.31.12.49.22.53.1.04.22.06.36.06s.29.04.44.12c.15.08.29.23.44.47,0,.08.04.27.11.59.07.31.11.51.11.59.15.16.29.16.44,0,.29,1.09.39,2.07.29,2.93-.1.86-.15,1.95-.15,3.28h.65c0,.23-.01.53-.04.88-.03.35-.13.64-.33.88v5.04c-.34.16-.56.33-.65.53-.1.2-.15.41-.15.64s.02.49.07.76c.05.27.07.57.07.88.34,0,.67-.12.98-.35.31-.23.62-.47.91-.7.1,1.02.51,2.05,1.24,3.1.73,1.05,1.4,1.7,2.04,1.93.05,0,.16-.06.33-.18.17-.12.3-.21.4-.29.15,0,.41.02.8.06.39.04.8.1,1.24.18.44.08.86.14,1.27.18.41.04.71.06.91.06.53.08.99.06,1.38-.06.39-.12.58.25.58,1.11.48,0,.93-.1,1.34-.29.41-.19.88-.29,1.42-.29.1,0,.33.02.69.06.36.04.54.25.54.64,0,.08-.05.27-.15.59l-.15.47c-.05.23-.06.74-.04,1.52.02.78.04,1.25.04,1.41l-.22.35c-.05.08-.1.12-.15.12s-.07.04-.07.12c-.1.08-.39.25-.87.53-.48.27-.75.45-.8.53-.39.39-.64.74-.76,1.05-.12.31-.23.57-.33.76-.1.19-.27.35-.51.47-.24.12-.7.18-1.38.18-.15,0-.33-.02-.54-.06-.22-.04-.35-.06-.4-.06l-.36-.59-.8,1.05.44.58c-.1,0-.27.1-.51.29-.24.19-.41.29-.51.29h-.36c-.24-.08-.53-.22-.87-.41-.34-.2-.68-.37-1.02-.53-.34-.16-.65-.31-.94-.47-.29-.16-.46-.23-.51-.23-.05-.08-.21-.35-.47-.82-.27-.47-.45-.78-.55-.94h-.22ZM176.18,358.8h.44v-1.17l-.44,1.17ZM176.61,305.51c.05.39.29.59.73.59.29,0,.56-.1.8-.29.24-.19.56-.29.94-.29v-1.99c-.53,0-.98.25-1.34.76-.36.51-.74.92-1.13,1.23ZM177.34,357.63c0,.39.01.7.04.94.02.23.08.51.18.82.44.16.69-.02.76-.53.07-.51.11-.88.11-1.11s-.02-.68-.07-1.35c-.05-.66-.22-1-.51-1-.34,0-.51.29-.51.88v1.35ZM179.3,299.07c-.44,0-.85.23-1.24.7-.39.47-.58,1.09-.58,1.87.63,0,1.09-.16,1.38-.47.29-.31.44-1.01.44-2.11ZM179.09,308.32c-.24.16-.39.33-.44.53-.05.2-.07.41-.07.64l.15.47.58-1.05-.22-.59ZM178.58,329.87c0,.55.12,1.07.36,1.58.24.51.58.76,1.02.76,0-.47-.12-.98-.36-1.52-.24-.55-.58-.82-1.02-.82ZM179.09,355.4l.22-.59-.22-.58-.36.58.36.59ZM179.09,319.68c-.1-.08-.15,0-.15.23s.05.35.15.35c.24-.39.24-.59,0-.59ZM179.74,361.49c-.53,0-.8.47-.8,1.41.53,0,.8-.47.8-1.41ZM179.09,327.53l.22-.47h-.22v.47ZM179.3,350.95c.1-.31.08-.47-.04-.47s-.18.16-.18.47c.05.16.1.23.15.23s.07-.08.07-.23ZM179.09,357.16h.22v-.59h-.22v.59ZM179.3,372.85h.44v-4.33l-.44.47v3.86ZM179.74,297.66c-.24,0-.36.2-.36.59s.12.59.36.59c.15,0,.22-.19.22-.59s-.07-.59-.22-.59ZM179.89,306.33l.15.23c.48.47.8,1.05.94,1.76s.46,1.25.94,1.64l.65-1.05.73,1.05.94-1.64c-.05-.55-.32-.74-.8-.59-.48.16-.75.23-.8.23,0-.47.07-.86.22-1.17.15-.31.3-.62.47-.94.17-.31.33-.64.47-1,.15-.35.22-.8.22-1.35-.48,0-.92.16-1.31.47-.39.31-.82.47-1.31.47-.29,0-.46-.19-.51-.59-.19.16-.44.49-.73,1-.29.51-.44.92-.44,1.23l.15.23ZM180.03,311.25c-.05-.16-.07-.1-.07.18s.02.41.07.41c.15-.16.22-.29.22-.41s-.07-.18-.22-.18ZM180.47,314.64l.44-.59h-.87l.44.59ZM180.03,364.42h1.24c0-.23-.04-.41-.11-.53s-.16-.25-.25-.41l-.87.94ZM183.52,311.83c-.29.16-.63.43-1.02.82-.39.39-.74.84-1.05,1.35-.32.51-.59,1.05-.84,1.64-.24.59-.36,1.15-.36,1.7.05,0,.25-.27.62-.82.36-.55.75-1.13,1.16-1.76.41-.62.79-1.23,1.13-1.82.34-.59.51-.92.51-1l-.15-.12ZM180.47,320.27h.44l-.44-.59v.59ZM180.9,358.21c0,.55.11.94.33,1.17.22.23.45.35.69.35,0-.23-.02-.72-.07-1.46-.05-.74-.24-1.11-.58-1.11h-.07c-.1.08-.17.25-.22.53-.05.27-.07.45-.07.53ZM181.19,319.09h.22v-.47l-.22.47ZM181.41,329.28c.24.08.53.29.87.64.34.35.61.53.8.53l.29-.47c.1-.16.21-.33.33-.53.12-.19.23-.41.33-.64.24-.47.56-1.05.94-1.76.1-.55.02-1.05-.22-1.52-.24-.47-.48-.7-.73-.7-.19,0-.45.02-.76.06-.32.04-.63.12-.94.23-.32.12-.58.29-.8.53-.22.23-.33.55-.33.94s.05.64.15.76c.1.12.21.22.33.29.12.08.23.16.33.23.1.08.15.27.15.59v.35l-.29.23c-.19.16-.34.23-.44.23ZM181.41,336.19c.1.08.18.18.25.29.07.12.16.18.25.18l.15.12.07-.12c.1,0,.17-.06.22-.18.05-.12.12-.21.22-.29v-.59c-.15-.39-.29-.59-.44-.59l-.07-.12s-.1.04-.15.12c-.19,0-.36.2-.51.59v.59ZM181.92,338.42c0,.08.04.18.11.29s.11.22.11.29h.44c-.24-.39-.39-.59-.44-.59l-.07-.12s-.1.04-.15.12ZM182.57,377.54c-.24,0-.36.18-.36.53s.12.53.36.53.36-.18.36-.53-.12-.53-.36-.53ZM182.57,341.82c-.1-.08-.15.02-.15.29s.05.33.15.18c.1-.08.15-.18.15-.29s-.05-.18-.15-.18ZM182.57,363.48c-.1-.16-.15-.12-.15.12s.05.35.15.35c.1-.08.15-.18.15-.29s-.05-.18-.15-.18ZM183.01,320.27c-.24,0-.36.18-.36.53s.12.53.36.53c.15,0,.22-.18.22-.53s-.07-.53-.22-.53ZM183.52,318.63c.1-.16,0-.23-.29-.23s-.36.08-.22.23c0,.16.07.23.22.23s.24-.08.29-.23ZM183.3,340.64v-1.05l-.29.47.29.59ZM183.3,310.66c-.15,0-.22.2-.22.59s.07.59.22.59c.1,0,.15-.19.15-.59s-.05-.59-.15-.59ZM183.52,332.8c0,.23.08.66.25,1.29.17.63.4.94.69.94.34,0,.53-.21.58-.64.05-.43.07-.8.07-1.11,0-.55-.05-.98-.15-1.29-.1-.31-.34-.47-.73-.47-.48,0-.73.43-.73,1.29ZM183.52,371.21h.51v-.47l-.51.47ZM183.88,336.9c0,.23.05.35.15.35.1.39.21.88.33,1.46.12.59.23.88.33.88h.51c0-.62-.08-1.27-.25-1.93-.17-.66-.52-1-1.05-1v.23ZM184.97,375.31c-.15,0-.22.18-.22.53s.07.53.22.53c.24,0,.36-.18.36-.53s-.12-.53-.36-.53ZM186.35,302.23c-.19.16-.47.41-.84.76-.36.35-.54.84-.54,1.46v.47c.29-.39.57-.82.84-1.29.27-.47.45-.94.54-1.41ZM187.52,373.55c-.19,0-.29.18-.29.53s.1.53.29.53.29-.18.29-.53-.1-.53-.29-.53ZM189.26,337.25c0,.86.24,1.29.73,1.29v-.7c0-.08-.06-.35-.18-.82-.12-.47-.18-.74-.18-.82-.24.08-.36.43-.36,1.05ZM189.62,342.28h.44c0-.55-.15-.9-.44-1.05v1.05ZM191.37,336.19c-.24,0-.36.18-.36.53s.12.53.36.53c.19,0,.29-.18.29-.53s-.1-.53-.29-.53ZM192.46,378.47c-.48,0-.73.43-.73,1.29l.15.12c.24,0,.4-.16.47-.47.07-.31.11-.62.11-.94ZM192.46,372.85c-.19,0-.29.22-.29.64s.1.64.29.64c.15,0,.22-.21.22-.64s-.07-.64-.22-.64ZM192.75,339h.29c.05-.08.1-.14.15-.18.05-.04.1-.1.15-.18l.15-.23c0-.16-.05-.45-.15-.88-.1-.43-.19-.72-.29-.88l-.29,2.34ZM193.91,341.23l.29-.59-.29-.59v1.17ZM195.22,336.66l.15.12h.15s.07-.04.07-.12l.07-.12c.05-.08.07-.13.07-.17s.02-.1.07-.18c.05-.16.12-.35.22-.59h-1.09l.29,1.05Z"/>
          <path class="cls-2" d="M222.69,381.99c-.1.16-.18.41-.25.76-.07.35-.11.57-.11.64,0-.31-.07-.47-.22-.47-.1,0-.34.02-.73.06-.39.04-.63.02-.73-.06-.05,0-.29-.12-.73-.35-.44-.23-.78-.43-1.02-.58-.05,0-.12-.04-.22-.12l-.29-.23h-.29l-.15.23c-.05.08-.1.12-.15.12l-.15.12-.07-.12c.05-.16.02-.45-.07-.88-.1-.43-.19-.72-.29-.88-.1-.16-.33-.31-.69-.47-.36-.16-.59-.23-.69-.23v-1.05l-1.16,1.29c0,.08-.07-.02-.22-.29-.15-.27-.24-.49-.29-.64-.1-.16-.11-.47-.04-.94.07-.47-.01-.74-.25-.82-.24.16-.36.35-.36.58v.7c0,.23-.05.45-.15.64-.1.2-.34.29-.73.29-.87,0-1.43-.19-1.67-.58-.24-.39-.36-.86-.36-1.41s.01-1.07.04-1.58c.02-.51-.13-.84-.47-1-.1-.08-.36-.16-.8-.23-.44-.08-.75-.12-.94-.12l.36-1.05c-.48-.08-.9-.31-1.24-.7-.34-.39-.63-.88-.87-1.46-.24-.58-.47-1.21-.69-1.87-.22-.66-.42-1.27-.62-1.82-.05-.08-.17-.35-.36-.82-.19-.47-.34-.82-.44-1.05-.63-1.25-1.02-2.3-1.16-3.16-.15-.86-.34-1.91-.58-3.16l-.15-.23-.15-.23c-.05-.31-.11-.94-.18-1.87s-.11-1.52-.11-1.76v-.82c0-.55.05-1.05.15-1.52.1-.47.15-1.01.15-1.64v-.59c0-.08-.05-.23-.15-.47-.1-.23-.15-.39-.15-.47v-2.11c0-.31.02-.88.07-1.7.05-.82.12-1.68.22-2.58.1-.9.24-1.68.44-2.34.19-.66.44-1,.73-1,0,.39-.05.72-.15,1-.1.27-.15.57-.15.88.19,0,.48.04.87.12.39.08.65-.08.8-.47.05-.16.12-.47.22-.94.1-.47.15-.74.15-.82h.22v1.05c.1,0,.24.06.44.18.19.12.31.14.36.06l.15-.23.15-.23c.1,0,.3-.06.62-.18.31-.12.5-.21.55-.29v-.58c0-.86-.12-1.66-.36-2.4-.24-.74-.36-1.58-.36-2.52.29,0,.56.08.8.23.24.16.51.23.8.23s.46-.16.51-.47c-.1-.39-.25-.59-.47-.59s-.42-.08-.62-.23l-.07-.23c0-.31.1-.72.29-1.23.19-.51.31-.92.36-1.23.05,0,.18-.02.4-.06.22-.04.37-.06.47-.06s.4.04.91.12c.51.08.76.35.76.82,0,.08-.05.23-.15.47-.1.23-.15.39-.15.47v.35c.39,0,.85-.08,1.38-.23.53-.16.92-.51,1.16-1.05.1-.16.18-.6.25-1.35.07-.74.23-1.11.47-1.11,0,.78.27,1.17.8,1.17.15,0,.33-.02.54-.06.22-.04.38-.18.47-.41.05-.23.05-.47,0-.7l-.15-.47h-1.02c.1,0,.17-.1.22-.29.05-.19.07-.33.07-.41,0-.16-.02-.41-.07-.76-.05-.35-.12-.53-.22-.53.05,0,.1-.04.15-.12l.15.12s.18.12.4.35c.22.23.38.39.47.47.1.08.34.18.73.29.39.12.63.33.73.64.1.63.17,1.25.22,1.87.05.63.24,1.21.58,1.76.05,0,.1-.02.15-.06.05-.04.1-.06.15-.06v-.94l.15.12h.07c.05.08.16.25.33.53.17.27.28.41.33.41h.22c.15,0,.4-.06.76-.18.36-.12.59-.21.69-.29v-.23c0-.39-.16-.64-.47-.76-.32-.12-.52-.25-.62-.41l-.07-.12c0-.08.02-.16.07-.23.05-.16.13-.37.25-.64.12-.27.21-.41.25-.41.1,0,.29.16.58.47.29.31.48.51.58.59h.07c.53,0,.85-.29.94-.88.1-.59.31-1.07.65-1.46.1.16.24.47.44.94.19.47.34.78.44.94.05,0,.1.12.15.35.05.23.1.39.15.47l.15.12.07-.12s.12-.08.22-.23c.05-.08.1-.12.15-.12v-3.75l.51-.35c-.1.86-.08,1.76.04,2.69.12.94.3,1.84.54,2.69l.44-.35v-4.33c.05.08.1.12.15.12s.1.02.15.06c.05.04.1.06.15.06.15,0,.22.12.22.35.1.16.18.61.25,1.35.07.74.11,1.23.11,1.46h.29c.05-.08.15-.23.29-.47s.24-.43.29-.59h2.47c-.1.16-.21.49-.33,1-.12.51-.18.84-.18,1-.05.08-.04.22.04.41.07.2.13.33.18.41.1.16.33.27.69.35.36.08.62.12.76.12-.05.23-.16.35-.33.35s-.35.02-.54.06c-.19.04-.4.14-.62.29-.22.16-.38.55-.47,1.17,0-.23-.05-.64-.15-1.23-.1-.59-.17-.96-.22-1.11,0-.16-.02-.39-.07-.7-.05-.31-.1-.55-.15-.7-.15-.39-.25-.53-.33-.41-.07.12-.23.18-.47.18,0,1.09.1,1.91.29,2.46.19.55.29,1.33.29,2.34h-.51l-.15.47.87,1.41c.05.08.08.08.11,0,.02-.08.06-.12.11-.12v-.35l-.15-.47c-.05-.16-.07-.31-.07-.47,0-.08.02-.16.07-.23l.15-.23h.22c.34,0,.56.29.65.88.1.58.1,1.07,0,1.46.15-.78.34-1.25.58-1.41.24-.16.63-.23,1.16-.23v2.23c.53,0,.88-.04,1.05-.12.17-.08.47.08.91.47-.05,0-.13.04-.25.12-.12.08-.23.16-.33.23v.35c0,.63.24,1.02.73,1.17.48.16.85.23,1.09.23,0,.08-.02.12-.07.12-.05.16-.11.35-.18.59-.07.23-.13.35-.18.35-.1,0-.19-.04-.29-.12-.1-.08-.19-.13-.29-.17-.1-.04-.17-.1-.22-.18l-.29-.23-.29-.23s-.15.06-.29.18-.24.22-.29.29c.53.78,1.02,1.72,1.45,2.81-.29.39-.55.53-.76.41-.22-.12-.5-.18-.84-.18-.05.16-.07.27-.07.35v.23c.05.16.13.39.25.7.12.31.21.51.25.59.05.16.21.41.47.76.27.35.4.57.4.64,0,.23-.07.58-.22,1.05s-.27.74-.36.82c-.05-.39-.24-.59-.58-.59-.1,0-.19.02-.29.06-.1.04-.17.22-.22.53.19.08.29.27.29.58v.82c0,.55-.07.92-.22,1.11-.15.2-.33.33-.55.41-.22.08-.47.12-.76.12s-.56.04-.8.12c-.29.16-.38.47-.25.94.12.47.04.78-.25.94-.15-.47-.28-.74-.4-.82-.12-.08-.3-.12-.54-.12-.53,0-.86.2-.98.59-.12.39-.33.66-.62.82l-.58-.47c-.1-.08-.24-.23-.44-.47-.19-.23-.34-.39-.44-.47l-.22.47.22.47c-.19.47-.32.92-.36,1.35-.05.43-.1.84-.15,1.23-.05.39-.13.76-.25,1.11-.12.35-.35.64-.69.88.15-.55.15-1.07,0-1.58-.15-.51-.41-.76-.8-.76-.24,0-.42.14-.55.41-.12.27-.23.61-.33,1,0-.08-.01-.19-.04-.35-.02-.16-.04-.27-.04-.35,0-.16.01-.29.04-.41.02-.12.04-.21.04-.29s.05-.29.15-.64c.1-.35.15-.57.15-.64,0-.31-.1-.47-.29-.47h-.44c-.24,0-.57.16-.98.47-.41.31-.62.66-.62,1.05,0,.08.02.16.07.23.05.16.19.33.44.53.24.2.39.37.44.53.05.08.05.51,0,1.29-.05.78-.05,1.25,0,1.41,0,.08.02.2.07.35l.15.47v.12c0,.08.02.16.07.23-.39.39-.7.7-.94.94-.24.23-.48.43-.73.58-.24.16-.39.23-.44.23,0-.62.12-1.09.36-1.41.24-.31.36-.78.36-1.41s-.08-.94-.25-.94h-.76c0,.16.02.37.07.64.05.27.07.49.07.64-.05.31-.17.86-.36,1.64-.1.31-.17.66-.22,1.05h-.15c0-.23-.04-.62-.11-1.17-.07-.55-.28-.74-.62-.59-.19,0-.57.1-1.13.29-.56.2-.96.37-1.2.53-.05.08-.12.16-.22.23l-.29.23h-.44c0-.86-.24-1.6-.73-2.22,0,.08-.1.12-.29.12v2.22c-.34,0-.55-.31-.62-.94-.07-.62-.28-.94-.62-.94,0,.23-.02.61-.07,1.11-.05.51-.07.88-.07,1.11,0,.16.07.47.22.94.15.47.27.74.36.82l.44.23c.29.16.51.23.65.23.68.23,1.32.45,1.93.64.6.2,1.2.45,1.78.76.53.31,1.1.53,1.71.64.61.12,1.17.37,1.71.76.15.08.36.22.65.41.29.2.44.33.44.41.05.08.1.31.15.7.05.39.1.63.15.7.05,0,.22.08.51.23.29.16.51.23.65.23h.29c.29,0,.54-.08.76-.23.22-.16.47-.23.76-.23.53,0,.99.1,1.38.29.39.2.87.29,1.45.29,0,.63.1,1,.29,1.11.19.12.41.18.65.18.39,0,.62-.1.69-.29.07-.19.23-.29.47-.29.19,0,.31.08.36.23.05.16.07.33.07.53s.02.37.07.53c.05.16.17.23.36.23.34,0,.47-.25.4-.76-.07-.51.06-.76.4-.76.05,0,.11.02.18.06.07.04.13.06.18.06.1.08.22.12.36.12s.29.04.44.12c.19.08.39.12.58.12.19.16.29.43.29.82s.15.59.44.59h.07l1.45-2.23h2.54l-.22.47c.15.55.45.84.91.88.46.04.81.33,1.05.88l-.65.58c0,.55-.02,1.05-.07,1.52-.05.39-.08.84-.11,1.35-.02.51-.04.92-.04,1.23-.05.39-.1.61-.15.64-.05.04-.19.06-.44.06v.59h.8v2.34h-.07c-.1,0-.15-.04-.15-.12-.05,0-.1-.06-.15-.18-.05-.12-.1-.18-.15-.18-.1-.16-.29-.35-.58-.59-.29-.23-.49-.39-.58-.47l-.15.12c0,.39.02.62.07.7.05.08.11.12.18.12s.13.02.18.06c.05.04.07.18.07.41,0,.39-.08.72-.25,1-.17.27-.38.41-.62.41h-.36c-.05-.08-.32-.16-.8-.23-.48-.08-.78-.16-.87-.23h-.29l-.15.23c-.05.08-.07.16-.07.23-.1,0-.24.04-.44.12-.19.08-.34.12-.44.12v-1.64c-.97.16-1.82.62-2.54,1.41v-2.11c-.05-.08-.1-.12-.15-.12h-.15c-.05.08-.11.29-.18.64-.07.35-.11.6-.11.76h-1.38l-.36.82c0-.08-.07-.23-.22-.47-.1,0-.29-.08-.58-.23-.19-.08-.36-.12-.51-.12-.1-.16-.07-.37.07-.64.15-.27.22-.49.22-.64-.05,0-.19-.02-.44-.06-.24-.04-.39-.06-.44-.06l-.15.23-.15.23c-.1,0-.29.02-.58.06-.29.04-.48.06-.58.06v-1.17c-.05.08-.1.19-.15.35-.05.16-.1.23-.15.23h-.22s-.12-.08-.22-.23c-.1-.16-.15-.27-.15-.35h-.29c-.24.23-.41.57-.51,1-.1.43-.18.86-.25,1.29-.07.43-.16.78-.25,1.05-.1.27-.22.41-.36.41-.24,0-.39-.12-.44-.35-.05-.23-.09-.51-.11-.82-.02-.31-.06-.59-.11-.82-.05-.23-.22-.35-.51-.35h-.22ZM203.14,342.4c-.15,0-.22.14-.22.41s.07.41.22.41c.1,0,.15-.13.15-.41s-.05-.41-.15-.41ZM205.69,346.5c-.15,0-.22.14-.22.41s.07.41.22.41c.1,0,.15-.14.15-.41s-.05-.41-.15-.41ZM205.91,344.16c-.19.23-.29.58-.29,1.05.29,0,.51-.19.65-.59l-.36-.47ZM205.91,352c.05-.16.01-.23-.11-.23s-.16.08-.11.23c.05.16.1.23.15.23s.07-.08.07-.23ZM207.14,341c-.24,0-.41.27-.51.82-.1.55-.15.9-.15,1.05.1,0,.31-.16.65-.47.34-.31.51-.55.51-.7v-.23c-.1-.16-.19-.27-.29-.35-.1-.08-.17-.12-.22-.12ZM207.36,342.75c-.1-.08-.15.1-.15.53s.05.61.15.53c.1-.16.15-.33.15-.53s-.05-.37-.15-.53ZM209.25,356.57c0,.16-.04.31-.11.47-.07.16-.09.31-.04.47.05,0,.13.12.25.35.12.23.23.39.33.47.19-.08.29-.37.29-.88v-1c0-.54-.06-1-.18-1.35-.12-.35-.18-.8-.18-1.35,0-.39.06-.72.18-1,.12-.27.3-.41.54-.41h.15c0,.08.08.25.25.53.17.28.28.41.33.41h.29c.05-.08.12-.16.22-.23l.29-.23c.1-.08.3-.14.62-.18.31-.04.5-.14.54-.29.05-.08.1-.37.15-.88.05-.51.1-.8.15-.88.05,0,.21-.08.47-.23.27-.16.47-.23.62-.23h.29s.19.08.44.23c.24.16.39.23.44.23.34,0,.74-.27,1.2-.82.46-.54.81-.9,1.05-1.05.1.7.21,1.21.33,1.52.12.31.38.47.76.47.1,0,.3-.02.62-.06.31-.04.52-.21.62-.53l.51-3.63c.24-.16.59-.35,1.05-.58.46-.23.81-.35,1.05-.35h.15c.1.08.25.23.47.47.22.23.35.39.4.47h.29s.11-.08.18-.23c.07-.16.11-.27.11-.35.05-.16.11-.59.18-1.29.07-.7.11-1.17.11-1.41.15,0,.47-.06.98-.18.51-.12.84-.21.98-.29.19,0,.48-.08.87-.23.19-.08.39-.12.58-.12v-3.75c0,.31.07.47.22.47.19.31.44.63.73.94.15.23.29.39.44.47l.29-.47c-.39-1.01-.65-1.89-.8-2.63-.15-.74-.53-1.54-1.16-2.4-.24-.31-.64-.76-1.2-1.35-.56-.59-.98-.88-1.27-.88-.53,0-.99.22-1.38.64-.39.43-.78.9-1.16,1.41-.39.51-.81.98-1.27,1.41-.46.43-1.03.64-1.71.64h-.22c-.1,0-.3-.13-.62-.41-.32-.27-.5-.45-.55-.53h-.29c0,.08-.04.29-.11.64-.07.35-.13.61-.18.76l-.58.94c-.05.08-.12.16-.22.23-.05.08-.12.12-.22.12h-.07c-.05.08-.15.25-.29.53-.15.27-.24.45-.29.53-.1,0-.29-.02-.58-.06-.29-.04-.48-.02-.58.06-.05,0-.11.2-.18.59-.07.39-.11.63-.11.7s-.04.16-.11.23c-.07.08-.13.16-.18.23l-.22-.47c-1.41,1.48-2.25,3.47-2.54,5.97-.29-.31-.53-.23-.73.23-.19.47-.34.82-.44,1.05,0,.16-.05.47-.15.94-.1.47-.15.78-.15.94h-.51l-.58-2.23c0,.08-.01.23-.04.47-.02.23-.04.43-.04.59,0,.63.06,1.13.18,1.52.12.39.18.9.18,1.52,0,.08-.01.16-.04.23-.02.08-.04.16-.04.23v.35c-.05.16-.19.29-.44.41-.24.12-.41.14-.51.06v3.16h-.73v.59c.29,0,.55-.08.76-.23.22-.16.5-.23.84-.23ZM208.45,359.27c.05-.16.01-.23-.11-.23s-.16.08-.11.23c.05.16.1.23.15.23s.07-.08.07-.23ZM208.23,336.9c0,.08.04.16.11.23.07.08.11.16.11.23.1,0,.3.04.62.12.31.08.52.12.62.12,0-.78-.15-1.17-.44-1.17h-.15c-.1,0-.24.06-.44.18-.19.12-.34.22-.44.29ZM209.1,338.3c-.15,0-.22.14-.22.41s.07.41.22.41c.1,0,.15-.14.15-.41s-.05-.41-.15-.41ZM209.25,331.63c0,.63.15,1.09.44,1.41.29.31.58.47.87.47,0-.86-.1-1.39-.29-1.58-.19-.19-.53-.29-1.02-.29ZM209.9,361.96c-.1,0-.15.16-.15.47s.05.47.15.47c.15,0,.22-.16.22-.47s-.07-.47-.22-.47ZM210.48,356.45c-.15,0-.22.18-.22.53s.07.53.22.53.22-.18.22-.53-.07-.53-.22-.53ZM210.48,335.02c0,.31.1.47.29.47.19-.08.3-.29.33-.64.02-.35.04-.6.04-.76-.15,0-.29.06-.44.18s-.22.33-.22.64v.12ZM210.48,342.4c0,.23.1.35.29.35v-.35c0-.08-.05-.18-.15-.29-.1-.12-.15-.21-.15-.29v.59ZM211.65,375.19c-.19,0-.29.16-.29.47v.47c.24-.16.5-.29.76-.41.27-.12.4-.45.4-1,0-.08-.01-.12-.04-.12s-.04-.04-.04-.12v-.12c-.1-.16-.28-.35-.55-.58-.27-.23-.45-.39-.54-.47l-.29.47-.07.23v.23c0,.08.02.12.07.12,0,.08.07.23.22.47s.27.35.36.35ZM211.36,377.07c-.15,0-.22.14-.22.41s.07.41.22.41.22-.13.22-.41-.07-.41-.22-.41ZM211.36,338.3h.29v-1.41h-.29v1.41ZM211.65,354.7c.05-.16.01-.23-.11-.23s-.18.08-.18.23.04.23.11.23.13-.08.18-.23ZM211.65,377.89c-.1,0-.15.1-.15.29s.05.29.15.29c.24-.16.24-.35,0-.59ZM211.87,335.49c.05-.16.01-.23-.11-.23s-.16.08-.11.23c.05.16.1.23.15.23s.07-.08.07-.23ZM211.65,372.38h.51v-.35h-.51v.35ZM212.45,378.47c.05-.16.01-.23-.11-.23s-.18.08-.18.23c.05.08.11.12.18.12s.11-.04.11-.12ZM212.74,376.48c-.15,0-.22.18-.22.53s.07.53.22.53.22-.17.22-.53-.07-.53-.22-.53ZM212.74,365.59h.29v-.47h-.29v.47ZM213.03,332.8c-.15,0-.22.16-.22.47s.07.47.22.47.22-.16.22-.47-.07-.47-.22-.47ZM213.32,333.27c-.15,0-.22.16-.22.47s.07.47.22.47.22-.16.22-.47-.07-.47-.22-.47ZM213.61,339.12c-.15,0-.22.16-.22.47s.07.47.22.47.22-.16.22-.47-.07-.47-.22-.47ZM213.61,374.73h.58l-.15-.23c-.05-.08-.1-.12-.15-.12l-.15-.12s-.1.04-.15.12v.35ZM214.19,332.8c-.05.16-.04.39.04.7.07.31.13.55.18.7h.29l.87-.47v-.23c0-.39-.08-.8-.25-1.23-.17-.43-.38-.72-.62-.88-.05.16-.15.39-.29.7-.15.31-.22.55-.22.7ZM215.57,374.61c-.24,0-.45.08-.62.23-.17.16-.25.43-.25.82h.87v-1.05ZM216.15,374.37v.53c0,.2.02.37.07.53l.15.7h.36v-2.93c-.39,0-.58.39-.58,1.17ZM216.37,332.8c-.1,0-.15.16-.15.47s.05.47.15.47c.19,0,.29-.16.29-.47s-.1-.47-.29-.47ZM216.37,337.83c-.1,0-.15.14-.15.41s.05.41.15.41c.19,0,.29-.14.29-.41s-.1-.41-.29-.41ZM216.95,330.34c-.24,0-.44.23-.58.7h.58v-.7ZM216.73,337.36c.1-.47.17-.86.22-1.17.05-.31.07-.7.07-1.17v-.7c0-.31-.1-.51-.29-.59v3.63ZM217.61,359.62l.22-.35h-.58l.36.35ZM218.41,371.09c-.15,0-.22.16-.22.47s.07.47.22.47.22-.16.22-.47-.07-.47-.22-.47ZM218.7,357.86c.05-.16.01-.23-.11-.23s-.18.08-.18.23c.1.47.19.47.29,0ZM218.7,379.29c.05-.16.01-.23-.11-.23s-.18.08-.18.23c.1.47.19.47.29,0ZM218.7,334.2c.19.47.36.88.51,1.23.15.35.39.53.73.53h.44c.15,0,.24-.16.29-.47-.05,0-.1-.08-.15-.23-.05-.16-.1-.23-.15-.23s-.18-.06-.4-.18c-.22-.12-.35-.21-.4-.29-.05,0-.1-.14-.15-.41-.05-.27-.1-.41-.15-.41h-.36l-.15.23c-.05.08-.07.16-.07.23ZM219.79,372.97c.05-.16-.04-.23-.25-.23s-.3.08-.25.23c.05.16.15.23.29.23s.22-.08.22-.23ZM220.66,373.44c.19,0,.39-.16.58-.47h-.58v.47ZM221.53,350.13h.29v-.47h-.29v.47ZM222.11,353.29v-.47h-.29l.29.47ZM221.9,346.73c0,.23.02.57.07,1,.05.43.12.86.22,1.29.1.43.22.82.36,1.17s.34.53.58.53l.07-.12.15-.23.15-.23c.05-.16.07-.54.07-1.17v-1.17c-.24,0-.46.16-.65.47-.1-.39-.22-.74-.36-1.05-.15-.31-.36-.47-.65-.47ZM223.13,330.92c0,.16.01.41.04.76.02.35.13.57.33.64.19,0,.29-.16.29-.47v-.23c0-.31-.07-.51-.22-.59-.15-.08-.29-.12-.44-.12ZM223.2,352h.29v-.59h-.29v.59ZM223.78,373.32c.53.47.9.94,1.09,1.41.1,0,.17-.04.22-.12l.15-.23c0-.16.01-.49.04-1,.02-.51.04-.84.04-1-.24,0-.5.12-.76.35-.27.23-.52.43-.76.59ZM223.78,381.17h.36c0-.39-.12-.7-.36-.94v.94ZM224.58,375.55c0,.39.02.82.07,1.29.05.47.24.7.58.7h.22c-.05-.47-.12-.92-.22-1.35-.1-.43-.32-.64-.65-.64ZM224.8,352.36c0,.16.01.49.04,1,.02.51.16.8.4.88.24-.08.36-.37.36-.88v-1h-.8ZM225.24,356.1v-.94l-.36.35.36.59ZM225.17,344.39c0,.08.02.16.07.23,0,.08.02.16.07.23l.15.23c.1-.62.34-.98.73-1.05.39-.08.73-.04,1.02.12-.1-.31-.24-.47-.44-.47h-.44c-.1,0-.32.02-.65.06-.34.04-.51.25-.51.64ZM227.42,345.09c-.1.08-.23.18-.4.29-.17.12-.25.29-.25.53h1.02l-.36-.82ZM226.91,332.8h.51v-.47h-.51v.47ZM227.42,380.58c-.1,0-.15.18-.15.53s.05.53.15.53c.19,0,.29-.18.29-.53s-.1-.53-.29-.53ZM228.29,352.82l.36-.47h-.58l.22.47ZM228.29,347.32c-.1,0-.15.16-.15.47s.05.47.15.47c.19,0,.29-.16.29-.47s-.1-.47-.29-.47ZM228.65,345.56c0-.16-.06-.23-.18-.23s-.18.08-.18.23c.05.16.11.23.18.23s.13-.08.18-.23ZM228.29,351.07h.36v-.47h-.36v.47ZM229.45,352.36c0-.16-.06-.23-.18-.23s-.16.08-.11.23c.05.16.11.23.18.23s.11-.08.11-.23ZM229.16,349.66h.29v-.47l-.29.47ZM229.45,342.4c-.15,0-.22.14-.22.41s.07.41.22.41.22-.13.22-.41-.07-.41-.22-.41ZM229.67,344.04c0,.86.12,1.54.36,2.05.24.51.44,1.11.58,1.81.15-.23.22-.43.22-.58v-.35c0-.16-.04-.41-.11-.76-.07-.35-.11-.57-.11-.64-.1-.55-.16-.94-.18-1.17-.02-.23-.28-.35-.76-.35ZM230.62,350.6c-.15,0-.22.14-.22.41s.07.41.22.41c.1,0,.15-.13.15-.41s-.05-.41-.15-.41ZM230.83,339.12c-.1,0-.15.18-.15.53s.05.49.15.41c.1-.08.15-.23.15-.47s-.05-.39-.15-.47ZM231.13,337.36c-.15,0-.22.16-.22.47s.07.47.22.47.22-.16.22-.47-.07-.47-.22-.47ZM232.29,345.56v-.47h-.87l.87.47ZM232.72,374.37c-.53,0-.8.31-.8.94.34,0,.65-.31.94-.94h-.15ZM232.58,338.65c-.15,0-.22.18-.22.53s.07.53.22.53.22-.17.22-.53-.07-.53-.22-.53ZM232.87,339.12c-.15,0-.22.16-.22.47s.07.47.22.47.22-.16.22-.47-.07-.47-.22-.47ZM233.96,376.48c0,.08.05.2.15.35l.15.23c.15,0,.3-.12.47-.35.17-.23.3-.43.4-.59l-.29-.47h-.29c-.05.08-.15.16-.29.23-.15.08-.24.16-.29.23v.35ZM234.54,380.58v-.35h-.29l.29.35ZM234.83,374.37c-.15,0-.22.14-.22.41s.07.41.22.41.22-.14.22-.41-.07-.41-.22-.41ZM235.7,374.73c-.19,0-.29.16-.29.47s.1.47.29.47c.1,0,.15-.16.15-.47s-.05-.47-.15-.47ZM237.67,381.17c-.34,0-.53.16-.58.47h.29c.05-.08.15-.16.29-.23.15-.08.22-.16.22-.23h-.22Z"/>
          <path class="cls-2" d="M250.75,383.86c-.24,0-.39-.04-.44-.12-.05-.08-.19.08-.44.47-.05-.31-.11-.88-.18-1.7-.07-.82-.23-1.42-.47-1.81v-5.39c-.1-.39-.19-.82-.29-1.29-.1-.47-.15-.9-.15-1.29,0-.47.18-.88.55-1.23.36-.35.54-.88.54-1.58,0-.23-.04-.84-.11-1.82-.07-.98-.13-1.54-.18-1.7-.05-.08-.19-.35-.44-.82-.24-.47-.36-.78-.36-.94-.05-.08-.06-.39-.04-.94.02-.55.08-1.01.18-1.41.05,0,.07-.04.07-.12s.02-.16.07-.23c.05-.08.1-.19.15-.35v-.47c-.24-1.17-.44-2.34-.58-3.51-.15-1.17-.22-2.38-.22-3.63.05-.23.1-.43.15-.59.05-.16.1-.27.15-.35.05-.08.07-.16.07-.23v-1.52c0-.47-.02-1.09-.07-1.87-.05-.78-.13-1.58-.25-2.4-.12-.82-.29-1.56-.51-2.23-.22-.66-.52-1.11-.91-1.35-.05.08-.12.16-.22.23-.05.08-.12.12-.22.12h-.07c-.1,0-.19-.04-.29-.12l-.29-.23h-.22c-.34,0-.61.12-.8.35-.1-.78-.24-1.56-.44-2.34-.19-.78-.61-1.01-1.24-.7-.05-.39-.17-1-.36-1.82-.19-.82-.46-1.35-.8-1.58.73-.62,1.13-1.44,1.2-2.46.07-1.01.11-2.07.11-3.16-.1,0-.23.06-.4.18-.17.12-.25-.06-.25-.53,0-.16-.01-.47-.04-.94-.02-.47-.04-.78-.04-.94,0-.39-.01-.9-.04-1.52-.02-.62.08-1.09.33-1.41.19.08.29.29.29.64s-.03.74-.07,1.17c-.05.43-.07.82-.07,1.17s.12.53.36.53.44-.12.58-.35l.22,1.64c.1,0,.22-.1.36-.29.15-.19.24-.37.29-.53v-.47c-.05-.08-.11-.29-.18-.64-.07-.35-.11-.57-.11-.64v-.47c.1-.16.24-.43.44-.82.19-.39.41-.59.65-.59v.47c-.05.08-.11.23-.18.47-.07.23-.11.39-.11.47.05.16.12.41.22.76.1.35.19.57.29.64.73-.16,1.32-.33,1.78-.53.46-.19.81-.92,1.05-2.17.34,0,.59.14.76.41.17.27.3.59.4.94.1.35.19.66.29.94.1.27.24.41.44.41.29,0,.48-.19.58-.59.1-.39.27-.59.51-.59,0,1.56.17,2.6.51,3.1.34.51.73.82,1.16.94.44.12.84.2,1.2.23.36.04.59.37.69,1,.1-.31.36-.68.8-1.11.44-.43.73-.68.87-.76.1-.08.31-.08.65,0,.34.08.56.08.65,0,.53-.39,1.1-1.07,1.71-2.05.61-.98,1.05-1.82,1.34-2.52.05,0,.1-.06.15-.18.05-.12.1-.18.15-.18.1,0,.29.02.58.06.29.04.46.02.51-.06.1-.08.28-.35.54-.82.27-.47.45-.78.55-.94h.07s.07-.02.07-.06.02-.06.07-.06l.07.12s.15.06.29.18c.15.12.24.18.29.18h.29s.18-.08.4-.23c.22-.16.35-.19.4-.12.05,0,.17.22.36.64.19.43.31.64.36.64.19.16.52.27.98.35.46.08.76.12.91.12,0,.39.06.78.18,1.17.12.39.18.9.18,1.52h.36s.17-.06.36-.18c.19-.12.31-.18.36-.18h.22c.19,0,.36.18.51.53.15.35.28.76.4,1.23.12.47.27.96.44,1.46.17.51.4.92.69,1.23l.15.12h.15c0,.16-.05.43-.15.82-.1.39-.15.63-.15.7v.35c0,.08.02.16.07.23l.22.23.07-.12c.05-.08.07-.14.07-.18s.02-.1.07-.18c.05-.16.12-.27.22-.35l.15-.12.15.12c.1.16.27.39.51.7.24.31.36.55.36.7v3.87l-.22.47c-.24.23-.56.06-.94-.53-.39-.59-.63-1-.73-1.23-.05.16-.09.31-.11.47-.02.16-.06.31-.11.47v.35c.05.16.08.61.11,1.35.02.74.06,1.19.11,1.35v.12c0,.08-.11.29-.33.64-.22.35-.47.74-.76,1.17-.29.43-.56.8-.8,1.11-.24.31-.39.47-.44.47-.34,0-.58-.18-.73-.53-.15-.35-.28-.72-.4-1.11-.12-.39-.24-.78-.36-1.17-.12-.39-.3-.62-.54-.7-.1,0-.39.12-.87.35-.48.23-.78.39-.87.47-.24-.55-.39-.98-.44-1.29-.05-.31-.07-.74-.07-1.29,0-.47.02-.86.07-1.17.05-.31.19-.66.44-1.05h-.65c-.34,0-.54.08-.62.23-.07.16-.23.23-.47.23-.34,0-.53-.08-.58-.23-.05-.16-.32-.23-.8-.23-.73,0-1.27.37-1.64,1.11-.36.74-.62,1.7-.76,2.87l.15.47c.05.16.1.27.15.35,0,.08-.02.16-.07.23l-.22.35-.07.12c-.19,0-.32-.1-.36-.29-.05-.19-.11-.43-.18-.7-.07-.27-.21-.51-.4-.7-.19-.19-.51-.29-.94-.29-.1,0-.34.25-.73.76-.39.51-.58.96-.58,1.35v.23l.36.59v.35c0,.08.02.16.07.23h-.44s-.13-.12-.25-.35c-.12-.23-.21-.35-.25-.35l-.15-.12c-.39,0-.69.29-.91.88-.22.59-.33,1.19-.33,1.82,0,.39.19.66.58.82.39.16.7.16.94,0-.19.78-.33,1.42-.4,1.93s-.11,1.15-.11,1.93c0,.31.04.57.11.76.07.2.11.49.11.88s-.04.63-.11.7c-.07.08-.11.23-.11.47v.47c.05.08.15.22.29.41.15.2.22.33.22.41l-.15.47c-.05.16-.1.27-.15.35v.23c0,.47.16,1.21.47,2.23.31,1.02.47,1.83.47,2.46,0,.23-.01.55-.04.94-.02.39-.07.8-.15,1.23-.07.43-.17.78-.29,1.05-.12.28-.28.37-.47.29v1.29c0,1.25.15,2.71.44,4.39.29,1.68.44,3.1.44,4.27,0,.94-.11,1.6-.33,1.99-.22.39-.45.66-.69.82-.24.16-.47.25-.69.29-.22.04-.33.22-.33.53,0,.39.06.72.18,1,.12.27.18.53.18.76,0,.86-.15,1.46-.44,1.82s-.63.64-1.02.88c-.39.23-.79.45-1.2.64-.41.19-.76.53-1.05,1-.05.08-.11.21-.18.41-.07.19-.11.33-.11.41h-.29l-.51-.82s-.1-.04-.15-.12c-.05,0-.1-.04-.15-.12v.23c-.1.08-.24.25-.44.53-.19.27-.32.49-.36.64-.05,0-.07-.08-.07-.23v-.35c0-.7.16-1.19.47-1.46.31-.27.47-.72.47-1.35ZM244.28,333.15c-.1,0-.15.14-.15.41s.05.41.15.41c.19,0,.29-.13.29-.41s-.1-.41-.29-.41ZM245.44,330.92c-.1-.08-.15-.02-.15.18s.05.29.15.29.15-.06.15-.18-.05-.21-.15-.29ZM249.44,333.73c-.34,0-.53.22-.58.64-.05.43-.07.8-.07,1.11h.44l.36-1.64-.15-.12ZM249.59,364.3l.29-.82h-.29v.82ZM251.19,380.23c-.39-.16-.61.12-.65.82-.05.7-.07,1.13-.07,1.29h.51c0-.16.02-.35.07-.59.05-.16.07-.33.07-.53s.02-.37.07-.53v-.47ZM250.68,359.85h.29v-.58h-.29v.58ZM251.99,379.29c0,.55.1.86.29.94v-.94h-.29ZM253.15,364.65c-.1,0-.15.16-.15.47s.05.47.15.47.15-.16.15-.47-.05-.47-.15-.47ZM255.77,365.94c-.15.16-.24.37-.29.64-.05.27-.07.53-.07.76h.36v-1.41ZM255.98,377.65c-.1-.08-.15-.04-.15.12s.05.23.15.23c.1-.08.15-.16.15-.23s-.05-.12-.15-.12ZM256.56,364.65v-.35h-.22l.22.35ZM257,339c-.15,0-.22.16-.22.47s.07.47.22.47c.1,0,.15-.16.15-.47s-.05-.47-.15-.47ZM263.54,338.42v-.7l-.29.35.29.35ZM264.71,337.36c.05.16.12.27.22.35.1.08.19.12.29.12v-.47h-.51ZM269.36,337.72c-.1,0-.15.12-.15.35s.05.35.15.35c.15,0,.22-.12.22-.35s-.07-.35-.22-.35ZM269.87,340.76v-.35h-.22l.22.35ZM270.52,339.47h.44l-.44-.47v.47Z"/>
          <path class="cls-2" d="M322.92,378.12c-.53,0-1.08.27-1.64.82-.56.55-1.13.7-1.71.47-.24-.08-.34-.37-.29-.88.05-.51.07-1.05.07-1.64s-.06-1.13-.18-1.64c-.12-.51-.42-.76-.91-.76h-.15c-.39.39-.62,1.05-.69,1.99-.07.94-.11,1.48-.11,1.64-.29-.23-.51-.33-.65-.29-.15.04-.28.16-.4.35-.12.2-.23.37-.33.53-.1.16-.24.2-.44.12-.48,0-.88-.39-1.2-1.17-.32-.78-.56-1.66-.73-2.63-.17-.98-.29-1.97-.36-2.99-.07-1.01-.11-1.76-.11-2.23.1-.62.23-1.25.4-1.87.17-.62.28-1.29.33-1.99l2.69.23c.19.39.46.8.8,1.23.34.43.7.68,1.09.76.53,0,1.06-.25,1.6-.76.53-.51,1.07-.72,1.6-.64.39,0,.62.2.69.59.07.39.3.58.69.58s.68-.1.87-.29c.19-.19.41-.6.65-1.23-.29,0-.48-.19-.58-.58-.05-.16.07-.47.36-.94.29-.47.46-.78.51-.94,0-.94-.04-2.17-.11-3.69-.07-1.52-.15-3.1-.22-4.74s-.11-3.22-.11-4.74.07-2.71.22-3.57c0-.16.04-.49.11-1,.07-.51.16-1.09.25-1.76.1-.66.18-1.31.25-1.93.07-.62.13-1.09.18-1.41.1-.94.08-1.72-.04-2.34-.12-.62-.18-1.29-.18-1.99,0-.16.02-.6.07-1.35.05-.74.1-1.35.15-1.82.15-1.56.3-3.14.47-4.74.17-1.6.21-3.18.11-4.74,0-.08-.1-.31-.29-.7-.19-.39-.34-.59-.44-.59.1-.23.17-.68.22-1.35.05-.66.1-1.11.15-1.35h-.36c-.05.16-.12.31-.22.47-.1.16-.15.27-.15.35-.24.16-.52.41-.84.76-.32.35-.52.61-.62.76-.05,0-.18.06-.4.18-.22.12-.45.23-.69.35-.24.12-.46.23-.65.35-.19.12-.29.22-.29.29-.48.31-1.01.8-1.56,1.46-.56.66-1.14,1.29-1.74,1.87-.61.59-1.21,1.05-1.82,1.41-.61.35-1.2.37-1.78.06.19-.94.28-1.76.25-2.46-.02-.7-.11-1.37-.25-1.99-.15-.62-.34-1.29-.58-1.99-.24-.7-.51-1.52-.8-2.46,0-.08.01-.25.04-.53.02-.27.04-.45.04-.53.05-.23.13-.55.25-.94.12-.39.35-.43.69-.12.05.08.12.27.22.59.1.31.19.55.29.7h.07c.15.08.36-.02.65-.29.29-.27.59-.6.91-1,.31-.39.59-.8.84-1.23.24-.43.36-.76.36-1,.15-.47.18-.88.11-1.23-.07-.35-.06-.8.04-1.35l.87.35c.29-1.41.53-2.28.73-2.63.19-.35.39-.49.58-.41.19.08.42.2.69.35.27.16.62-.04,1.05-.59.19-.23.31-.45.36-.64.05-.19.08-.35.11-.47.02-.12.07-.18.15-.18s.25.08.54.23c.24,0,.44.12.58.35-.1-.08-.28.04-.55.35-.27.31-.42.55-.47.7-.1.08-.15.37-.15.88s-.02.88-.07,1.11c.29.16.51.06.65-.29.15-.35.31-.74.51-1.17.19-.43.44-.78.73-1.05.29-.27.7-.25,1.24.06l.65-3.75c.05-.16.17-.25.36-.29.19-.04.34.02.44.18.63.55,1.34,1.41,2.14,2.58.8,1.17,1.32,2.11,1.56,2.81.05.16.17.39.36.7.19.31.34.55.44.7.44.86.65,2.07.65,3.63s-.06,3.14-.18,4.74c-.12,1.6-.21,3.09-.25,4.45-.05,1.37.1,2.28.44,2.75,0,.31-.02.8-.07,1.46-.05.66-.11,1.37-.18,2.11-.07.74-.16,1.45-.25,2.11-.1.66-.17,1.15-.22,1.46l-.15.7c-.1.47-.12.7-.07.7.05.16.22.35.51.59.29.23.46.43.51.59.1.62.08,1.56-.04,2.81-.12,1.25-.28,2.58-.47,3.98-.19,1.41-.39,2.75-.58,4.04-.19,1.29-.32,2.28-.36,2.99.05.08.12.45.22,1.11.1.66.15,1.04.15,1.11-.05,1.02-.1,1.76-.15,2.23-.05.47-.07.9-.07,1.29s.02.84.07,1.35c.05.51.17,1.27.36,2.28v.23c0,.08-.01.12-.04.12-.03,0-.04.04-.04.12v.23s-.12.02-.22.06c-.1.04-.17.06-.22.06l-.07.23v.35l.65-.23c-.15.23-.29.78-.44,1.64-.15.86-.17,1.45-.07,1.76.05.47.23.8.54,1,.31.2.69.35,1.13.47.44.12.9.2,1.38.23.48.04.9.1,1.24.18.24.08.42.06.54-.06.12-.12.3-.45.55-1l-.07,1.64c.1-.08.28-.18.54-.29.27-.12.45-.17.55-.17,0,.08.02.12.07.12h.15c.15,0,.24.08.29.23.05.16.19.31.44.47.1,0,.24-.08.44-.23.19-.16.29-.35.29-.58v-.23c-.1-.08-.25-.23-.47-.47-.22-.23-.38-.35-.47-.35.05,0,.11-.12.18-.35.07-.23.13-.35.18-.35v-.12l.15.12h.15c.92.62,1.66.98,2.22,1.05.56.08.97.27,1.24.59.27.31.42.92.47,1.82.05.9.02,2.44-.07,4.63,0,.47-.02,1.27-.07,2.4-.05,1.13-.22,2.01-.51,2.64l-.29-.7.15-4.22c-.1,0-.21.02-.33.06-.12.04-.23.06-.33.06s-.17-.08-.22-.23c-.05-.16-.05-.43,0-.82-.24.31-.45.76-.62,1.35-.17.59-.35,1.19-.54,1.82-.19.63-.36,1.17-.51,1.64-.15.47-.29.74-.44.82,0-.08-.05-.18-.15-.29-.1-.12-.15-.21-.15-.29h-.22l-.15-.23c-.1.16-.24.33-.44.53-.19.2-.32.37-.36.53v-1.52c-.34.31-.62.66-.84,1.05-.22.39-.45.86-.69,1.41-.1-.16-.19-.39-.29-.7-.1-.31-.22-.58-.36-.82.1.39.07.64-.07.76-.15.12-.29.17-.44.17-.19,0-.32-.1-.36-.29-.05-.19-.09-.41-.11-.64-.03-.23-.06-.45-.11-.64-.05-.19-.17-.29-.36-.29h-.22s-.1.04-.15.12c.05.86-.11,1.6-.47,2.23-.36.62-.76,1.01-1.2,1.17v-1.29c-.24,0-.42.1-.54.29-.12.19-.25.45-.4.76-.15.31-.3.58-.47.82-.17.23-.4.35-.69.35h-.07l-.36-.47c-.24,0-.44.12-.58.35-.19-.7-.38-1.15-.55-1.35-.17-.2-.45-.33-.84-.41-.63-.23-1.14.27-1.53,1.52-.05-.16-.15-.37-.29-.64-.15-.27-.27-.45-.36-.53h-.36c-.19,0-.29-.04-.29-.12-.15-.31-.24-.59-.29-.82-.05-.23-.09-.45-.11-.64-.03-.19-.07-.35-.15-.47s-.25-.18-.54-.18ZM321.1,312.18c-.1-.08-.18.06-.25.41-.07.35-.04.61.11.76.15.08.23-.08.25-.47.02-.39-.01-.62-.11-.7ZM321.25,313.47c0,.16-.04.57-.11,1.23-.07.66.01,1.11.25,1.35.29-.08.5-.21.62-.41.12-.19.23-.45.33-.76.1-.39.04-.68-.18-.88-.22-.19-.42-.33-.62-.41-.05,0-.1-.02-.15-.06-.05-.04-.1-.06-.15-.06ZM328.37,374.61c0,.08.02.16.07.23l.15.23.07-.23-.07-.23c0-.31-.07-.47-.22-.47l-.07.12.07.35ZM329.75,372.5c-.19.08-.29.29-.29.64s.1.49.29.41c.15.08.22-.06.22-.41s-.07-.57-.22-.64ZM330.04,378.24c-.19.16-.29.37-.29.64s-.03.53-.07.76l.36.23v-1.64ZM330.19,375.19h.36l.07-.47-.44.47ZM330.48,376.72c-.19,0-.29.2-.29.59s.1.58.29.58c.15.08.22-.08.22-.47s-.07-.62-.22-.7ZM331.5,377.42c-.1-.08-.15,0-.15.23s.05.35.15.35c.24,0,.24-.19,0-.58ZM332.01,371.8c-.24.31-.36.7-.36,1.17v.47c.15-.16.23-.35.25-.59.02-.23.04-.43.04-.58.05-.08.07-.23.07-.47ZM333.17,373.79c-.24.23-.39.63-.44,1.17-.05.55-.07.9-.07,1.05l.44-.12.07-2.11Z"/>
          <path class="cls-2" d="M369.51,370.98h-2.33c-.14-.86-.35-1.42-.62-1.7-.27-.27-.58-.45-.94-.53-.36-.08-.75-.12-1.16-.12s-.81-.16-1.2-.47c-.24-.23-.41-.7-.51-1.41-.1-.7-.34-1.05-.73-1.05-.05,0-.1.04-.15.12-.29.47-.53.76-.73.88-.19.12-.38.2-.55.23-.17.04-.34.14-.51.29-.17.16-.35.47-.54.94v-2.22c-.05-.08-.12-.12-.22-.12h-.36c-.1.08-.33.27-.69.58-.36.31-.59.51-.69.59h-.36c-.05-.16-.16-.55-.33-1.17-.17-.62-.28-1.01-.33-1.17-.15-.47-.3-1.19-.47-2.17-.17-.98-.36-1.93-.58-2.87-.22-.94-.5-1.64-.84-2.11-.34-.47-.8-.39-1.38.23-.05-.16-.11-.43-.18-.82-.07-.39-.13-.66-.18-.82,0-.16.01-.55.04-1.17.02-.62.01-1.01-.04-1.17-.05-.16-.28-.27-.69-.35-.41-.08-.64-.16-.69-.23-.24-.23-.45-.66-.62-1.29-.17-.62-.29-1.31-.36-2.05-.07-.74-.12-1.46-.15-2.17-.02-.7-.04-1.29-.04-1.76,0-.55.1-1.07.29-1.58.19-.51.41-1.01.65-1.52.24-.51.46-1.01.65-1.52.19-.51.29-1.03.29-1.58v-.23c-.24.16-.45.31-.62.47-.17.16-.38.23-.62.23,0-.78.18-1.83.55-3.16.36-1.33.82-2.79,1.38-4.39.56-1.6,1.19-3.22,1.89-4.86.7-1.64,1.39-3.12,2.07-4.45.68-1.33,1.3-2.42,1.85-3.28.56-.86.98-1.29,1.27-1.29.24,0,.39.18.44.53.05.35.1.72.15,1.11.05.39.16.72.33,1,.17.27.47.37.91.29v-4.22c.24,0,.42.14.55.41.12.27.35.41.69.41s.59-.12.76-.35c.17-.23.31-.49.44-.76.12-.27.27-.53.44-.76.17-.23.4-.39.69-.47.39-.08.74-.12,1.05-.12s.62-.04.91-.12c.29-.08.56-.21.8-.41.24-.19.51-.57.8-1.11.29-.62.59-1.05.91-1.29.31-.23.65-.39,1.02-.47.36-.08.73-.14,1.09-.18.36-.04.76-.18,1.2-.41.1-.08.23-.27.4-.59.17-.31.28-.51.33-.59,0-.08.07-.12.22-.12h.36c.48,0,.81.35.98,1.05s.25,1.5.25,2.4-.05,1.76-.14,2.58c-.1.82-.15,1.35-.15,1.58.78,0,1.32-.25,1.64-.76.31-.51.81-1.19,1.49-2.05h.37c.24,0,.53.08.87.23.34.16.51.27.51.35.1.08.12.33.07.76-.05.43-.07.72-.07.88.14.55.33.94.54,1.17.22.23.44.49.65.76.22.27.42.64.62,1.11.19.47.31,1.21.36,2.23h.36c.05-.62.17-1.46.36-2.52.19-1.05.56-1.58,1.09-1.58.1,0,.27.06.51.18.24.12.41.25.51.41-.05.08-.12.25-.22.53-.1.27-.15.49-.15.64v.23c0,1.17.21,2.15.62,2.93.41.78,1.03,1.17,1.85,1.17v2.69c0,.55.01,1.07.04,1.58.02.51.04.88.04,1.11,0,.16,0,.55.04,1.17.02.63.05,1.29.07,1.99.03.7.06,1.37.11,1.99.05.63.07,1.02.07,1.17,0,.08-.01.27-.04.59-.03.31-.01.51.04.59.1.23.23.51.4.82.17.31.28.39.33.23l1.82-2.23v.23c0,.86-.12,1.8-.36,2.81-.24,1.02-.36,1.99-.36,2.93v.94l1.09-1.17v.59c-.05.39-.11,1.15-.18,2.28-.07,1.13-.13,1.89-.18,2.28-.05,0-.12.08-.22.23-.1.16-.14.27-.14.35-.05,0-.07.04-.07.12v.23c0,.08.02.16.07.23.05.08.17.18.36.29s.31.22.36.29c.1.16.14.31.14.47v.35h-1.74c0,1.33.03,2.58.07,3.75.05,1.17-.05,2.34-.29,3.51,0,.08-.05.18-.15.29s-.17.18-.22.18c-.1,0-.23-.06-.4-.18s-.28-.21-.33-.29c-.24.47-.37,1.02-.37,1.64v.35c0,.08.03.16.07.23l.65-.58v.35c0,1.25-.35,2.36-1.05,3.34-.7.98-1.42,1.46-2.14,1.46-.05,0-.22-.1-.51-.29-.29-.19-.49-.25-.58-.18-.05,0-.17.16-.36.47-.19.31-.29.51-.29.58l-.22.12-.14-.12c-.05-.08-.12-.18-.22-.29-.1-.12-.14-.21-.14-.29-.82.7-1.36,1.42-1.6,2.17-.24.74-.42,1.45-.54,2.11-.12.66-.29,1.19-.51,1.58-.22.39-.72.59-1.49.59h-.15c-.1-.16-.39-.49-.87-1-.48-.51-.8-.8-.95-.88h-.36c-.29,0-.51.16-.65.47-.14.31-.25.66-.33,1.05-.07.39-.15.74-.22,1.05-.07.31-.18.47-.33.47-.34,0-.65-.14-.95-.41-.29-.27-.63-.41-1.02-.41-.1,0-.28.02-.54.06-.27.04-.45.06-.54.06,0,.16-.05.45-.15.88-.1.43-.17.72-.22.88,0,.08-.03.12-.07.12h-.07c-.14,0-.22-.04-.22-.12l-1.23-3.4v1.64ZM355.27,355.4s-.07.02-.07.06c0,.04-.02.06-.07.06h-.07l-.36.59h.36c.24-.16.36-.35.36-.59l-.15-.12ZM360.21,354.23h.36c.15,0,.22.04.22.12.1.08.33.45.69,1.11.36.66.59,1.07.69,1.23.1,0,.35-.02.76-.06.41-.04.62-.02.62.06.39.16.84.45,1.34.88.51.43,1.02.88,1.53,1.35.51.47,1.01.88,1.49,1.23s.9.53,1.24.53h.22l.29-.23c.1-.08.17-.16.22-.23.05-.08.1-.12.14-.12s.12.1.22.29c.1.2.17.29.22.29.39,0,.8-.25,1.23-.76.44-.51.85-.84,1.24-1h2.83c.48-.16.96-.47,1.42-.94.46-.47.92-.94,1.38-1.41.46-.47.93-.84,1.42-1.11.48-.27.99-.25,1.53.06.14-.78.36-1.42.65-1.93.29-.51.61-1.01.95-1.52.34-.51.63-1.05.87-1.64s.36-1.31.36-2.17c0-.23-.01-.49-.04-.76-.03-.27-.16-.49-.4-.64.05-.23.07-.62.07-1.17v-3.4c0-.55-.03-.94-.07-1.17,0-.08-.05-.33-.14-.76-.1-.43-.21-.86-.33-1.29-.12-.43-.24-.84-.36-1.23-.12-.39-.18-.62-.18-.7-.39-1.79-.87-3.08-1.45-3.86-.58-.78-1.21-1.39-1.89-1.82-.68-.43-1.41-.86-2.18-1.29-.78-.43-1.55-1.15-2.33-2.17l-.22-.35c-.05-.08-.1-.19-.14-.35-.1-.08-.23-.18-.4-.29-.17-.12-.28-.18-.33-.18s-.17.08-.36.23c-.2.16-.32.23-.36.23-.15,0-.24-.1-.29-.29-.05-.19-.07-.43-.07-.7s-.01-.53-.04-.76c-.03-.23-.11-.39-.25-.47-.2,1.48-.56,2.4-1.09,2.75-.54.35-1.24.8-2.11,1.35-.05-.16-.11-.31-.18-.47-.07-.16-.13-.23-.18-.23h-.07s-.1-.04-.14-.12c-.05,0-.1.04-.15.12-.68,1.33-1.38,2.38-2.11,3.16-.73.78-1.58,1.48-2.54,2.11-.1.08-.32.45-.65,1.11-.34.67-.69,1.39-1.05,2.17-.36.78-.7,1.48-1.02,2.11-.32.63-.52.94-.62.94-.29,0-.44-.21-.44-.64s-.15-.64-.44-.64c-.24,0-.62.16-1.13.47-.51.31-.76.66-.76,1.05v.23c0,.08.02.12.07.12.05.16.17.39.36.7.19.31.31.47.36.47.1,0,.28-.16.54-.47.27-.31.42-.54.47-.7v.47c0,.62-.05,1.07-.15,1.35-.1.27-.22.51-.36.7-.15.2-.3.39-.47.59-.17.2-.33.49-.47.88.1,0,.23.06.4.18.17.12.28.22.33.29v.12c0,.08.01.12.04.12.02,0,.04.04.04.12,0,.47-.16,1.19-.47,2.17-.32.98-.52,1.7-.62,2.17v.23c0,.86.16,1.68.47,2.46.31.78.5,1.8.54,3.04h.22c.29,0,.44-.21.44-.64s.19-.64.58-.64ZM358.97,363.01c-.19.16-.38.39-.54.7-.17.31-.25.66-.25,1.05.58,0,.87-.39.87-1.17,0-.08-.01-.14-.04-.18-.03-.04-.04-.1-.04-.18v-.23ZM358.68,336.54c.29-.31.44-.74.44-1.29-.44,0-.73.27-.87.82l.44.47ZM358.97,337.13c-.1-.08-.15,0-.15.23s.05.35.15.35c.15-.08.22-.18.22-.29s-.07-.21-.22-.29ZM360.06,336.54v-1.17l-.36.7.36.47ZM360.06,333.73h.36v-.7h-.36v.7ZM362.17,327.64c-.53,0-.93.31-1.2.94-.27.63-.4,1.37-.4,2.23h1.6v-3.16ZM364.35,332.68c.48,0,.73-.43.73-1.29h-.73v1.29ZM371.84,365.82v-.59h-.36l.36.59ZM373.94,317.1c-.05-.16-.15-.16-.29,0-.14.16-.14.31,0,.47.1.08.19.06.29-.06.1-.12.1-.25,0-.41ZM375.76,321.67c-.1-.08-.14,0-.14.23s.05.35.14.35c.1-.16.15-.29.15-.41s-.05-.18-.15-.18ZM378.96,368.64c-.2,0-.29.2-.29.59s.1.58.29.58.29-.19.29-.58-.1-.59-.29-.59ZM380.34,363.6c-.15,0-.22.18-.22.53s.07.53.22.53c.19,0,.29-.18.29-.53s-.1-.53-.29-.53ZM385.72,329.17c.05-.23,0-.35-.14-.35s-.22.12-.22.35c.05.16.12.23.22.23s.14-.08.14-.23ZM388.19,341.82c-.29.16-.44.51-.44,1.05h.44v-1.05Z"/>
          <path class="cls-2" d="M407.96,378.12c-.53,0-1.08.27-1.63.82-.56.55-1.13.7-1.71.47-.24-.08-.34-.37-.29-.88.05-.51.07-1.05.07-1.64s-.06-1.13-.18-1.64c-.12-.51-.42-.76-.91-.76h-.15c-.39.39-.62,1.05-.69,1.99-.07.94-.11,1.48-.11,1.64-.29-.23-.51-.33-.65-.29-.15.04-.28.16-.4.35-.12.2-.23.37-.33.53-.1.16-.24.2-.44.12-.49,0-.88-.39-1.2-1.17-.32-.78-.56-1.66-.73-2.63-.17-.98-.29-1.97-.36-2.99-.07-1.01-.11-1.76-.11-2.23.1-.62.23-1.25.4-1.87.17-.62.28-1.29.33-1.99l2.69.23c.19.39.46.8.8,1.23.34.43.7.68,1.09.76.53,0,1.07-.25,1.6-.76.53-.51,1.07-.72,1.6-.64.39,0,.62.2.69.59.07.39.3.58.69.58s.68-.1.87-.29c.19-.19.41-.6.65-1.23-.29,0-.49-.19-.58-.58-.05-.16.07-.47.36-.94.29-.47.46-.78.51-.94,0-.94-.04-2.17-.11-3.69-.07-1.52-.15-3.1-.22-4.74-.07-1.64-.11-3.22-.11-4.74s.07-2.71.22-3.57c0-.16.04-.49.11-1,.07-.51.16-1.09.25-1.76.1-.66.18-1.31.25-1.93.07-.62.13-1.09.18-1.41.1-.94.08-1.72-.04-2.34-.12-.62-.18-1.29-.18-1.99,0-.16.02-.6.07-1.35.05-.74.1-1.35.15-1.82.15-1.56.3-3.14.47-4.74.17-1.6.21-3.18.11-4.74,0-.08-.1-.31-.29-.7-.19-.39-.34-.59-.44-.59.1-.23.17-.68.22-1.35.05-.66.1-1.11.15-1.35h-.36c-.05.16-.12.31-.22.47-.1.16-.15.27-.15.35-.24.16-.52.41-.84.76-.32.35-.52.61-.62.76-.05,0-.18.06-.4.18s-.45.23-.69.35c-.24.12-.46.23-.65.35-.19.12-.29.22-.29.29-.48.31-1.01.8-1.56,1.46-.56.66-1.14,1.29-1.74,1.87-.61.59-1.21,1.05-1.82,1.41-.61.35-1.2.37-1.78.06.19-.94.28-1.76.25-2.46-.02-.7-.11-1.37-.25-1.99-.15-.62-.34-1.29-.58-1.99-.24-.7-.51-1.52-.8-2.46,0-.08.01-.25.04-.53.02-.27.04-.45.04-.53.05-.23.13-.55.25-.94.12-.39.35-.43.69-.12.05.08.12.27.22.59.1.31.19.55.29.7h.07c.15.08.36-.02.65-.29.29-.27.59-.6.91-1,.31-.39.59-.8.84-1.23.24-.43.36-.76.36-1,.15-.47.18-.88.11-1.23-.07-.35-.06-.8.04-1.35l.87.35c.29-1.41.53-2.28.73-2.63.19-.35.39-.49.58-.41.19.08.42.2.69.35.27.16.62-.04,1.05-.59.19-.23.31-.45.36-.64.05-.19.08-.35.11-.47.02-.12.07-.18.15-.18s.25.08.54.23c.24,0,.44.12.58.35-.1-.08-.28.04-.54.35-.27.31-.42.55-.47.7-.1.08-.14.37-.14.88s-.03.88-.07,1.11c.29.16.51.06.65-.29.15-.35.31-.74.51-1.17.19-.43.44-.78.73-1.05.29-.27.7-.25,1.24.06l.65-3.75c.05-.16.17-.25.36-.29.19-.04.34.02.44.18.63.55,1.34,1.41,2.14,2.58.8,1.17,1.32,2.11,1.56,2.81.05.16.17.39.36.7.19.31.34.55.44.7.44.86.65,2.07.65,3.63s-.06,3.14-.18,4.74c-.12,1.6-.21,3.09-.25,4.45-.05,1.37.1,2.28.44,2.75,0,.31-.02.8-.07,1.46-.05.66-.11,1.37-.18,2.11-.07.74-.16,1.45-.25,2.11-.1.66-.17,1.15-.22,1.46l-.15.7c-.1.47-.12.7-.07.7.05.16.22.35.51.59.29.23.46.43.51.59.1.62.08,1.56-.04,2.81-.12,1.25-.28,2.58-.47,3.98-.19,1.41-.39,2.75-.58,4.04-.19,1.29-.32,2.28-.36,2.99.05.08.12.45.22,1.11.1.66.15,1.04.15,1.11-.05,1.02-.1,1.76-.15,2.23-.05.47-.07.9-.07,1.29s.02.84.07,1.35c.05.51.17,1.27.36,2.28v.23c0,.08-.01.12-.04.12s-.04.04-.04.12v.23s-.12.02-.22.06c-.1.04-.17.06-.22.06l-.07.23v.35l.65-.23c-.15.23-.29.78-.44,1.64-.14.86-.17,1.45-.07,1.76.05.47.23.8.54,1,.31.2.69.35,1.13.47.44.12.9.2,1.38.23.48.04.9.1,1.24.18.24.08.42.06.54-.06s.3-.45.54-1l-.07,1.64c.1-.08.28-.18.54-.29.27-.12.45-.17.54-.17,0,.08.02.12.07.12h.15c.15,0,.24.08.29.23.05.16.19.31.44.47.1,0,.24-.08.44-.23.19-.16.29-.35.29-.58v-.23c-.1-.08-.25-.23-.47-.47-.22-.23-.38-.35-.47-.35.05,0,.11-.12.18-.35.07-.23.13-.35.18-.35v-.12l.15.12h.14c.92.62,1.66.98,2.22,1.05.56.08.97.27,1.24.59.27.31.42.92.47,1.82.05.9.02,2.44-.07,4.63,0,.47-.03,1.27-.07,2.4-.05,1.13-.22,2.01-.51,2.64l-.29-.7.15-4.22c-.1,0-.21.02-.33.06-.12.04-.23.06-.33.06s-.17-.08-.22-.23c-.05-.16-.05-.43,0-.82-.24.31-.45.76-.62,1.35-.17.59-.35,1.19-.54,1.82-.19.63-.36,1.17-.51,1.64-.15.47-.29.74-.44.82,0-.08-.05-.18-.15-.29-.1-.12-.14-.21-.14-.29h-.22l-.14-.23c-.1.16-.24.33-.44.53-.19.2-.32.37-.36.53v-1.52c-.34.31-.62.66-.84,1.05-.22.39-.45.86-.69,1.41-.1-.16-.19-.39-.29-.7-.1-.31-.22-.58-.36-.82.1.39.07.64-.07.76-.15.12-.29.17-.44.17-.19,0-.32-.1-.36-.29-.05-.19-.08-.41-.11-.64s-.06-.45-.11-.64c-.05-.19-.17-.29-.36-.29h-.22s-.1.04-.15.12c.05.86-.11,1.6-.47,2.23s-.76,1.01-1.2,1.17v-1.29c-.24,0-.42.1-.55.29s-.25.45-.4.76c-.15.31-.3.58-.47.82s-.4.35-.69.35h-.07l-.36-.47c-.24,0-.44.12-.58.35-.19-.7-.38-1.15-.54-1.35-.17-.2-.45-.33-.84-.41-.63-.23-1.14.27-1.53,1.52-.05-.16-.15-.37-.29-.64-.15-.27-.27-.45-.36-.53h-.36c-.19,0-.29-.04-.29-.12-.15-.31-.24-.59-.29-.82-.05-.23-.08-.45-.11-.64-.02-.19-.07-.35-.15-.47-.07-.12-.25-.18-.54-.18ZM406.14,312.18c-.1-.08-.18.06-.25.41-.07.35-.04.61.11.76.15.08.23-.08.25-.47.02-.39-.01-.62-.11-.7ZM406.29,313.47c0,.16-.04.57-.11,1.23-.07.66.01,1.11.25,1.35.29-.08.5-.21.62-.41.12-.19.23-.45.33-.76.1-.39.04-.68-.18-.88-.22-.19-.42-.33-.62-.41-.05,0-.1-.02-.15-.06-.05-.04-.1-.06-.15-.06ZM413.41,374.61c0,.08.02.16.07.23l.14.23.07-.23-.07-.23c0-.31-.07-.47-.22-.47l-.07.12.07.35ZM414.79,372.5c-.19.08-.29.29-.29.64s.1.49.29.41c.15.08.22-.06.22-.41s-.07-.57-.22-.64ZM415.08,378.24c-.19.16-.29.37-.29.64s-.02.53-.07.76l.36.23v-1.64ZM415.23,375.19h.36l.07-.47-.44.47ZM415.52,376.72c-.19,0-.29.2-.29.59s.1.58.29.58c.14.08.22-.08.22-.47s-.07-.62-.22-.7ZM416.53,377.42c-.1-.08-.14,0-.14.23s.05.35.14.35c.24,0,.24-.19,0-.58ZM417.04,371.8c-.24.31-.36.7-.36,1.17v.47c.15-.16.23-.35.25-.59.02-.23.04-.43.04-.58.05-.08.07-.23.07-.47ZM418.21,373.79c-.24.23-.39.63-.44,1.17-.05.55-.07.9-.07,1.05l.44-.12.07-2.11Z"/>
        </g>
      </g>
    </symbol>
  </defs>
  <use width="546.26" height="387.26" transform="scale(6.13 5.89)" xlink:href="#Children"/>
</svg>