<?xml version="1.0" encoding="UTF-8"?>
<svg id="Layer_2" data-name="Layer 2" xmlns="http://www.w3.org/2000/svg" viewBox="0 0 546.52 307.98">
  <defs>
    <style>
      .cls-1 {
        fill: #9881c4;
      }

      .cls-2 {
        fill: #fff;
      }

      .cls-3 {
        stroke: #290088;
        stroke-miterlimit: 10;
      }
    </style>
  </defs>
  <g id="Layer_1-2" data-name="Layer 1">
    <g>
      <path class="cls-2" d="M372.48,301.96c-49.58-.17-99.87-.47-148.56-.75-42.2-.25-85.84-.5-128.77-.68-28.92-.12-57.74-.19-85.75-.21v-138.07c0-14.25,11.6-25.85,25.85-25.85h315.11c12.2,0,22.12,9.92,22.12,22.12v143.44Z"/>
      <path class="cls-1" d="M350.36,142.4c8.89,0,16.12,7.23,16.12,16.12v137.42c-47.61-.17-95.79-.46-142.5-.73-42.21-.25-85.86-.5-128.8-.68-27.04-.11-53.82-.18-79.78-.2v-132.08c0-10.94,8.9-19.85,19.85-19.85h315.11M350.36,130.4H35.25c-17.56,0-31.85,14.29-31.85,31.85v144.07c30.58.02,61.15.09,91.73.21,94.45.38,188.9,1.14,283.35,1.45v-149.47c0-15.5-12.61-28.12-28.12-28.12h0Z"/>
    </g>
    <g>
      <path class="cls-2" d="M362.48,301.93c-46.16-.17-92.97-.45-138.29-.72-42.29-.25-86.02-.51-129.03-.68-24.32-.1-49.78-.17-75.75-.2v-138.09c0-8.74,7.11-15.85,15.85-15.85h315.11c6.68,0,12.12,5.44,12.12,12.12v143.41Z"/>
      <path class="cls-1" d="M350.36,152.4c3.32,0,6.12,2.8,6.12,6.12v137.39c-44.22-.18-88.95-.44-132.32-.69-42.27-.25-85.98-.51-128.98-.68-22.45-.09-45.87-.15-69.78-.19v-132.1c0-5.43,4.42-9.85,9.85-9.85h315.11M350.36,140.4H35.25c-12.02,0-21.85,9.83-21.85,21.85v144.08c27.24.03,54.49.09,81.73.2,91.12.37,182.23,1.09,273.35,1.42v-149.44c0-9.96-8.15-18.12-18.12-18.12h0Z"/>
    </g>
    <g>
      <path class="cls-2" d="M12.67,89.56c-2.92,0-5.47-2.18-5.93-5.06l-.66-4.18c-.25-1.57.14-3.15,1.08-4.46.95-1.3,2.33-2.16,3.9-2.41L368.27,16.74c.31-.05.62-.07.94-.07,2.92,0,5.47,2.17,5.93,5.06l.66,4.18c.25,1.57-.14,3.15-1.08,4.46-.95,1.3-2.33,2.16-3.9,2.41L13.6,89.48c-.31.05-.62.07-.94.07Z"/>
      <path class="cls-1" d="M369.19,22.67s.01,0,.02,0c0,0,0,0,0,0l.67,4.14s-.02.04,0,.04L12.7,83.56s-.03-.01-.03-.01c0,0,0,0,0,0l-.67-4.14s.02-.04,0-.04L369.19,22.67M369.21,10.67c-.62,0-1.25.05-1.88.15L10.12,67.52c-6.52,1.03-11,7.21-9.97,13.73l.66,4.18c.93,5.89,6.07,10.12,11.86,10.12.62,0,1.25-.05,1.88-.15l357.21-56.71c6.52-1.03,11-7.21,9.97-13.73l-.66-4.18c-.93-5.89-6.07-10.12-11.86-10.12h0Z"/>
    </g>
    <g>
      <rect class="cls-2" x="142.43" y="15.21" width="97.01" height="22.68" transform="translate(-1.71 33.61) rotate(-10.01)"/>
      <path class="cls-1" d="M231.86,13.9l1.86,10.52-83.71,14.78-1.86-10.52,83.71-14.78M241.59,0l-107.35,18.96,6.03,34.15,107.35-18.96L241.59,0h0Z"/>
    </g>
    <g>
      <path class="cls-2" d="M79.98,300.48v-103.23c0-.06.05-.12.12-.12s.12.05.12.12v103.23h-.24Z"/>
      <path class="cls-1" d="M80.1,191.13c-3.38,0-6.12,2.74-6.12,6.12v109.21c4.08.01,8.16.02,12.24.04v-109.25c0-3.38-2.74-6.12-6.12-6.12h0Z"/>
    </g>
    <g>
      <path class="cls-2" d="M301.66,301.65v-104.4c0-.06.05-.12.12-.12s.12.05.12.12v104.4h-.24Z"/>
      <path class="cls-1" d="M301.78,191.13h0c-3.38,0-6.12,2.74-6.12,6.12v110.37c4.08.02,8.16.04,12.24.06v-110.43c0-3.38-2.74-6.12-6.12-6.12h0Z"/>
    </g>
    <g>
      <path class="cls-2" d="M190.82,301.02v-103.77c0-.06.05-.12.12-.12s.12.05.12.12v103.77h-.24Z"/>
      <path class="cls-1" d="M190.94,191.13c-3.38,0-6.12,2.74-6.12,6.12v109.73c4.08.02,8.16.05,12.24.07v-109.81c0-3.38-2.74-6.12-6.12-6.12h0Z"/>
    </g>
    <g>
      <path class="cls-3" d="M120.32,102.69c-.52,3.14-1.42,7.42-2.64,12.78-.91,3.62-1.82,7.18-2.64,10.74-.35,1.41-.56,2.26-.67,2.6-.35.92-.79,1.34-1.36,1.4-.71.07-1.55-.68-2.47-2.25-2.47-3.86-5.01-7.93-7.57-12.22-1.12,2.87-2.71,6.94-4.75,12.32-.96,2.52-1.86,3.76-2.62,3.83-.76.07-1.61-.84-2.56-2.74-2.99-5.8-4.83-12.69-5.59-20.8-.18-1.97-.42-5.54-.65-10.6-.99-.29-1.52-.91-1.61-1.78-.16-1.7.04-4.26.63-7.63.12-.78.46-1.26.93-1.3.76-.07,1.3.54,1.6,1.73.46,1.89.77,3.63.92,5.22.16,1.7.29,4.17.46,7.47.22,3.35.4,5.82.55,7.46.8,8.54,2.59,14.39,5.39,17.61.24-.52,1.18-2.76,2.82-6.78.61-1.71,1.7-4.36,3.19-7.98.27-.69.66-1.11,1.14-1.16.43-.04.84.31,1.3,1.04,2.55,4.73,5.3,9.45,8.27,14.08,1.13-4.8,2.32-9.61,3.5-14.41,1.3-5.64,2.08-10.58,2.41-14.75.07-1.33.53-2.04,1.29-2.11.76-.07,1.2.5,1.3,1.59.12,1.31-.1,3.54-.58,6.63Z"/>
      <path class="cls-3" d="M144.24,129.73c-1.57.15-2.61-1.74-3.06-5.57l-1.24-9.66c-4.19,3.93-6.87,7.6-8.08,11.08-.3.91-.55,1.76-.76,2.61-.4,1.36-.71,2.11-.95,2.13-.57.05-1.07-.18-1.55-.68-.48-.51-.72-1.04-.78-1.64,0-.11-.04-.44,0-.99-.05-.55-.03-.88-.04-.99,0-.11-.06-.6-.13-1.37-.11-.65-.16-1.15-.18-1.36-.35-3.72-.43-8.24-.21-13.51-.03-.33.2-4.55.69-12.6l.33-6.22c.08-1.22.15-1.95.22-2.23.1-.45.31-.75.65-.78.48-.04.98.24,1.42.81.44.62.69,1.26.75,1.92.01.16-.09,1.61-.27,4.33-.88,11.13-1.25,19.95-1.22,26.52,1.32-2.28,3.11-4.71,5.36-7.29,2.56-2.89,4.34-4.38,5.29-4.47.57-.05,1.08.23,1.56.79.44.62.69,1.26.76,2.03.04.38.06,1.15.07,2.31.02,1.21.1,2.14.16,2.75.16,1.7.49,4.21,1.09,7.58.18.87.38,2.01.71,3.47.06.66-.15,1.01-.62,1.05Z"/>
      <path class="cls-3" d="M164.63,113.79c-.5,2.37-.6,4.86-.37,7.38.09.93.22,1.86.49,2.72.44,1.62.71,2.42.72,2.53.1,1.04-.38,1.64-1.37,1.73-.95.09-1.56-.79-1.87-2.53-.18-.92-.46-2.39-.84-4.4-2.28,3.86-4.63,5.9-7.06,6.13-1.28.12-2.44-.44-3.48-1.77-1.02-1.12-1.58-2.5-1.73-4.09-.24-2.52.47-5.24,2.2-8.27.33-.58.96-1.53,1.86-2.71,2.83-3.58,5.3-5.47,7.48-5.67.48-.04,1.02.18,1.59.57.52.45.86.97.92,1.57,0,.11-.01.39-.07.78.48,1.06.79,2.3.92,3.67.43.51.67.99.71,1.37.02.22-.04.56-.1,1ZM159.8,108.78c-.62.06-1.56.75-2.79,2.03-1.14,1.16-2.04,2.29-2.71,3.4-1.76,2.76-2.5,5.04-2.33,6.85.18,1.92.88,2.79,2.22,2.67,1.81-.17,3.45-1.59,5.01-4.39s2.28-5.35,2.06-7.76c-.18-1.92-.7-2.86-1.46-2.79Z"/>
      <path class="cls-3" d="M183.44,106.68l-.67.06c-.44-.07-.84-.25-1.17-.67-.48.04-1.43.13-2.95.22-1.57.15-2.53.18-2.81.21-.58,5.63-.88,8.59-.85,8.86-.26,3.39-.32,6.38-.08,8.95.47.4.75.87.82,1.58.04.44-.11.84-.42,1.2-.35.36-.66.61-1,.65-1.24.12-1.94-1.2-2.18-3.83-.16-1.7-.12-4.35.16-8.02l.69-9.01c-1.52.14-2.34-.39-2.46-1.7-.11-1.15.83-1.85,2.83-2.03.32-3.29.97-8.15,1.89-14.65.15-.95.53-1.49,1.1-1.54,1.05-.1,1.63.51,1.75,1.77.03.27-.03.67-.18,1.18-.21.79-.42,2.19-.62,4.15-.44,3.47-.8,6.37-1,8.77.14-.01.81-.08,1.95-.18,1.15-.05,1.86-.12,2.24-.15,2.38-.22,3.65.49,3.79,2.02.06.66-.26,1.35-.85,2.18Z"/>
      <path class="cls-3" d="M190.61,82.76c-1.44,4.06-2.6,6.1-3.45,6.18-.95.09-1.43-.42-1.53-1.51-.05-.49.05-1,.34-1.52.56-1.16,1-2.14,1.31-2.94.22-.68.44-1.92.7-3.77.25-1.9.52-3.2.78-4,.37-1.19,1.03-1.86,1.93-1.95,1.05-.1,1.64.62,1.78,2.1.1,1.09-.53,3.58-1.85,7.41Z"/>
      <path class="cls-3" d="M211.79,102.48c-.29.03-.71.07-1.29.01-.58,0-1.01-.02-1.29.01-1.62.15-2.3,1.04-2.15,2.63.05.49.39,1.57,1.11,3.15.6,1.27,1.15,2.54,1.7,3.82,1.31,3.25,2.05,5.55,2.19,6.98.17,1.81-.38,3.18-1.62,4.24-1.08.82-2.51,1.34-4.32,1.51-2.95.28-4.49-.24-4.6-1.45-.13-1.37.19-2.12,1-2.19.19-.02.67,0,1.54.02.82.09,1.45.09,1.88.05,2.28-.21,3.35-1.14,3.18-2.89-.07-.77-1.04-3.38-2.83-7.74-.42-.95-.85-1.96-1.34-3.02-.43-1.01-.67-1.98-.76-2.97-.23-2.41.67-4.15,2.77-5.28.2-.9,1.02-1.42,2.35-1.54.52-.05,1.25.05,2.13.24.44.12.83.64,1.16,1.6.07.27.2.64.39,1.12,0,1.1-.38,1.64-1.18,1.71Z"/>
      <path class="cls-3" d="M240.23,83.07l-.34,21.25c-.1,5.62-.05,9.21.09,10.7.05.58.18,1.35.39,2.31.39.49.67,1.11.74,1.82.05.52-.08.99-.31,1.53-.3.42-.67.72-1.01.75-1.63.15-2.59-1.59-2.92-5.21-.33-3.5-.46-7.92-.34-13.35l.36-16.75c-1.02-.56-1.53-1.23-1.62-2.13-.2-2.14.07-4.71.81-7.71.75-2.94,1.56-4.52,2.41-4.6,1.12-.1,1.76.62,1.9,2.17.01.13-.04,3.2-.16,9.22Z"/>
      <path class="cls-3" d="M270.02,107.58c-.01,2.29.03,5.22.02,8.75-.05.66-.24,1.07-.69,1.11-.62.06-1.21-.21-1.71-.75-.51-.61-.79-1.23-.86-1.94-.03-.91-.05-2.35,0-4.18l-.07-11.03c-4.93,4.9-8.22,9.78-9.8,14.63-.25.94-.46,1.81-.71,2.68-.31.94-.54,1.49-.77,1.51-1.12.1-1.93-.6-2.52-2.11-.89-2.27-1.51-5.21-1.86-8.97-.37-3.95-.3-9.31.31-16.09.05-.66.24-1.07.69-1.11.62-.06,1.22.28,1.84.87.52.67.81,1.43.89,2.2-.05.66-.15,1.39-.24,2.31-.48,4.55-.42,9.44.07,14.68,3.82-7.08,7.86-12.42,12.17-16.02.68,0,1.27.27,1.83.74.57.6.91,1.22.97,1.87.27,2.91.39,6.56.45,10.86Z"/>
      <path class="cls-3" d="M341.47,118.3c-.78.07-1.53-.31-2.19-1-4.27-5.1-7.83-15.24-10.63-30.49-.76-3.92-1.9-9.84-3.42-17.68-1.08,3.79-2.42,10.47-4.09,19.97-.43,2.38-.77,4.37-.95,5.89-.1.99-.21,1.9-.26,2.81-.31.93-.85,1.43-1.63,1.51-2.21.21-5.75-4.13-10.52-13.18-2.52-4.59-4.98-10.61-7.25-18.08-1.22,5.84-1.87,11.47-1.94,17.05-.17,5.14.18,11.73.93,19.8.29,3.14-.35,4.7-1.77,4.84-1.88.18-3.14-3.47-3.85-11.09-.2-2.17-.36-5.92-.33-11.19,0-4.29-.08-7.83-.34-10.67-.05-.52-.18-1.26-.28-2.31-.16-1.04-.23-1.79-.29-2.38-.14-1.49.31-2.29,1.48-2.4.65-.06,1.33.25,1.92.95.91-4.98,1.78-8.23,2.68-9.82.33-.71.94-1.14,1.72-1.22.97-.09,1.88,1.26,2.8,4.03,4.17,13.77,8.6,23.45,13.31,29.04,1.56-9.94,3.47-18.85,5.74-26.82.79-2.71,1.64-4.15,2.55-4.23,1.56-.15,2.88,2.14,3.91,6.87.71,3.4,1.72,7.9,2.98,13.66,1.54,8.07,2.51,12.87,2.92,14.42,1.39,5.75,3.04,10.19,4.98,13.39.94.21,1.73,1.04,2.32,2.42.01.15.32.65.8,1.58.33.72.57,1.23.6,1.53-.1,1.74-.73,2.7-1.9,2.81Z"/>
      <path class="cls-3" d="M362.37,118.68c-3.53,4.25-8.4,6.73-14.56,7.31-3.57.33-5.49-.62-5.7-2.86-.13-1.42.45-2.23,1.61-2.41,1.71.07,2.89.11,3.54.05,10.25-.96,15.71-6.97,16.32-17.94.14-2.72,0-6.33-.43-10.88-.9,2.95-2.1,5.54-3.65,7.8-1.9,2.81-3.85,4.28-5.93,4.47-1.82.17-3.31-.37-4.42-1.77-1.23-1.24-1.92-3.06-2.14-5.37-.15-1.64-.25-4.12-.18-7.59-.06-3.46-.1-5.94-.25-7.58-.06-.6-.25-1.33-.53-2.21-.34-.87-.46-1.46-.49-1.69-.12-1.27.47-2,1.89-2.14.84-.08,1.55.53,2.13,1.83.51,1.31.91,2.7,1.06,4.34.15,1.64.2,4.27.13,7.75-.06,3.55-.03,6.03.11,7.45.06.6.31,1.18.8,1.58.43.41.97.59,1.49.54,1.56-.15,3.13-1.5,4.71-4.21,1.52-2.63,2.78-5.98,3.77-10.07.46-2.08,1.14-3.19,2.18-3.29,1.43-.13,2.34,1.96,2.75,6.3l.59,6.27c1.03,11.05-.57,19.11-4.79,24.33Z"/>
      <path class="cls-3" d="M425.58,45.08l-5.55,3.33c-.91,0-1.63-.25-2.16-.68l-8.68,3.46c.22,12.11.82,22.98,1.71,32.54.4,4.3.82,8.04,1.33,11.21.7.74,1.14,1.74,1.26,3.02l.41,4.38c.24,2.55-.31,4.13-1.65,4.73-1.47-.02-2.3-.67-2.57-2.09-1.32-6.71-2.38-14.96-3.29-24.76-.52-5.58-1.02-14.69-1.38-27.43-3.5,1.37-6.94,2.66-10.45,3.95-1.75.73-3.84,1.48-6.14,2.26-1.31.12-2-.54-2.15-2.13-.15-1.59.32-2.6,1.46-3.03,5.33-1.94,13.23-4.85,23.67-8.88,3.23-1.27,7.82-2.9,13.78-4.9.71.09,1.27.85,1.69,2.41.12,1.27-.36,2.12-1.29,2.61Z"/>
      <path class="cls-3" d="M454.05,72.79c-1.19.75-2.06,1.16-2.75,1.22-.14.01-.57-.11-1.43-.35-5.65,3.74-8.63,10.69-8.79,20.99-.12,5.4-.63,8.17-1.53,8.26-.76.07-1.44-.43-2.08-1.33-.64-.91-1-1.76-1.11-2.87.06-.81.21-2.19.37-4.21.12-2.42.12-4.67-.07-6.74-.22-2.31-.71-4.59-1.34-6.87-.92-.88-1.44-1.95-1.68-3.06-.55-2.12-.85-3.86-.97-5.13-.04-.48.04-1.05.33-1.72.22-.66.46-1.01.81-1.04,1.52-.14,2.7,1.27,3.52,4.09.84,2.98,1.46,5.17,1.89,6.73,1.33-3.74,3.19-6.97,5.72-9.69,2.41-2.63,4.99-4.08,7.76-4.34.69-.06,1.42.27,2.19,1,.63.75.99,1.6,1.14,2.46.08.88-.61,1.74-1.99,2.6Z"/>
      <path class="cls-3" d="M483.21,78.58c-.73,3.44-.88,7.07-.53,10.74.13,1.35.32,2.7.72,3.95.64,2.35,1.03,3.52,1.04,3.68.14,1.51-.54,2.38-2,2.52-1.38.13-2.27-1.15-2.72-3.68-.26-1.34-.67-3.47-1.23-6.39-3.31,5.61-6.74,8.58-10.26,8.91-1.87.17-3.55-.63-5.06-2.58-1.48-1.63-2.29-3.64-2.51-5.95-.34-3.66.68-7.62,3.2-12.03.48-.85,1.4-2.22,2.7-3.95,4.12-5.21,7.7-7.95,10.88-8.25.69-.06,1.49.26,2.31.83.76.65,1.25,1.41,1.33,2.29.02.16-.02.56-.1,1.13.7,1.54,1.15,3.35,1.34,5.34.63.74.97,1.44,1.02,1.99.03.32-.06.81-.14,1.46ZM476.17,71.29c-.9.08-2.27,1.1-4.05,2.95-1.66,1.68-2.97,3.33-3.93,4.95-2.56,4.02-3.64,7.33-3.4,9.96.26,2.79,1.29,4.06,3.22,3.88,2.63-.25,5.02-2.32,7.29-6.39,2.27-4.07,3.32-7.78,2.99-11.29-.26-2.79-1.02-4.16-2.12-4.06Z"/>
      <path class="cls-3" d="M506,66.41c-.42.04-1.04.1-1.88.02-.84,0-1.47-.02-1.88.02-2.35.22-3.35,1.52-3.13,3.83.07.72.56,2.28,1.62,4.59.87,1.85,1.67,3.7,2.47,5.55,1.91,4.72,2.99,8.08,3.18,10.15.25,2.63-.54,4.63-2.36,6.17-1.56,1.19-3.66,1.95-6.29,2.19-4.29.4-6.52-.35-6.69-2.11-.19-1.99.27-3.08,1.45-3.19.28-.03.98-.01,2.24.03,1.2.13,2.11.12,2.73.07,3.32-.31,4.87-1.66,4.63-4.21-.1-1.12-1.51-4.92-4.12-11.27-.62-1.39-1.24-2.86-1.95-4.4-.63-1.47-.97-2.88-1.1-4.32-.33-3.5.97-6.04,4.03-7.69.3-1.31,1.48-2.07,3.42-2.25.76-.07,1.82.07,3.1.35.65.18,1.2.93,1.68,2.33.11.39.3.94.57,1.63.01,1.61-.54,2.38-1.72,2.49Z"/>
      <path class="cls-3" d="M539.75,93.71c-2.28.21-3.8-2.54-4.46-8.1l-1.8-14.05c-6.1,5.71-9.99,11.06-11.75,16.12-.43,1.33-.81,2.57-1.11,3.8-.58,1.98-1.04,3.07-1.38,3.1-.83.08-1.56-.26-2.26-.99-.7-.74-1.05-1.51-1.13-2.39-.01-.16-.06-.64,0-1.45-.07-.8-.05-1.28-.07-1.44-.01-.16-.08-.88-.19-1.99-.16-.95-.22-1.67-.25-1.98-.51-5.42-.63-11.99-.3-19.66-.04-.48.29-6.62,1.01-18.33l.48-9.04c.11-1.78.22-2.83.33-3.24.15-.66.46-1.09.94-1.13.69-.06,1.43.35,2.06,1.17.64.9,1.01,1.83,1.1,2.79.02.24-.13,2.34-.39,6.3-1.28,16.19-1.83,29.02-1.77,38.57,1.92-3.31,4.53-6.85,7.8-10.61,3.72-4.2,6.31-6.37,7.7-6.5.83-.08,1.57.34,2.27,1.15.64.9,1.01,1.83,1.11,2.95.05.56.09,1.68.1,3.37.03,1.77.15,3.12.23,4,.23,2.47.71,6.12,1.59,11.02.26,1.26.55,2.92,1.03,5.05.09.96-.21,1.47-.9,1.53Z"/>
    </g>
  </g>
</svg>